<?xml version="1.0" encoding="UTF-8" standalone="no"?>
<svg xmlns:dc="http://purl.org/dc/elements/1.1/" xmlns:cc="http://creativecommons.org/ns#" xmlns:rdf="http://www.w3.org/1999/02/22-rdf-syntax-ns#" xmlns:svg="http://www.w3.org/2000/svg" xmlns="http://www.w3.org/2000/svg" viewBox="0 0 436.19601 644.58264" height="644.58264" width="436.19601" xml:space="preserve" id="svg2" version="1.1">
  <metadata id="metadata8"></metadata>
  <defs id="defs6">
    <clipPath id="clipPath18">
      <path id="path16" d="M 0,483.437 H 327.147 V 0 H 0 Z"></path>
    </clipPath>
  </defs>
  <g transform="matrix(1.3333333,0,0,-1.3333333,0,644.58267)" id="g10">
    <g id="g12">
      <g clip-path="url(#clipPath18)" id="g14">
        <g transform="translate(256.6823,41.5868)" id="g20">
          <path id="path22" style="fill:#1a3750;fill-opacity:1;fill-rule:nonzero;stroke:none" d="m 0,0 c 0.05,-0.129 0.091,-0.27 0.125,-0.425 0.047,-0.216 0.063,-0.443 0.064,-0.66 -0.613,0.25 -1.296,0.6 -1.948,0.994 -1.029,0.617 -2.072,1.316 -3.088,2.072 -1.016,0.757 -2.023,1.554 -3.027,2.36 l -2.805,2.273 c -1.68,2.418 -3.412,4.858 -4.932,7.39 -0.801,1.325 -1.571,2.666 -2.303,4.008 -0.725,1.341 -1.417,2.711 -1.971,4.033 l -0.141,0.338 -0.249,0.283 c -1.666,1.895 -3.207,4.11 -5.162,6.241 -0.379,0.412 -0.788,0.81 -1.199,1.206 -0.649,0.624 -1.325,1.23 -2.056,1.784 -1.111,0.849 -2.323,1.572 -3.576,2.18 -1.902,1.438 -3.782,2.616 -5.246,3.963 -1.393,1.266 -2.313,2.672 -2.776,4.321 0.517,1.554 1.507,2.948 2.804,4.158 -0.26,-1.259 -0.36,-3.019 0.741,-4.062 1.85,-1.754 8.792,-6.124 10.565,-8.574 0,0 -1.096,3.822 -4.624,7.234 -1.336,2.107 -3.817,3.64 -2.149,6.496 0.314,0.537 0.747,1.001 1.177,1.459 0.877,0.935 1.757,1.868 2.636,2.802 1.533,1.112 2.979,2.316 4.331,3.44 l 0.834,0.69 c -0.33,-3.691 -0.561,-7.406 -0.396,-11.087 0.521,2.3 1.193,4.541 1.943,6.755 0.12,0.525 0.218,1.057 0.257,1.607 l 1.015,1.963 c 0.413,1.113 0.837,2.223 1.262,3.334 l 2.624,6.763 c 0.447,1.188 0.892,2.38 1.316,3.607 0.001,0.004 0.003,0.007 0.005,0.01 0.109,0.213 0.218,0.443 0.327,0.683 0.104,0.227 0.234,0.564 0.299,0.735 l 0.483,1.249 c 0.776,1.986 1.581,3.968 2.39,5.953 0.556,1.363 1.114,2.725 1.669,4.094 l 2.252,5.596 c 1.764,2.99 3.533,5.572 5.314,7.283 8.577,8.799 17.24,13.766 26.996,20.563 l 0.112,0.979 c -2.844,-1.112 -5.692,-2.165 -8.442,-3.37 -3.743,-1.408 -6.719,-3.09 -10.053,-4.475 -0.567,0.571 -0.266,2.101 0.149,3.653 0.768,0.558 1.535,1.119 2.296,1.669 1.051,0.76 2.112,1.516 3.163,2.235 1.003,0.691 2.14,1.335 3.256,1.978 2.24,1.258 4.601,2.501 6.876,3.72 1.177,0.603 2.382,1.182 3.578,1.784 l 0.079,0.686 c -1.374,-0.434 -2.759,-0.838 -4.148,-1.282 -2.514,-0.856 -4.953,-1.665 -7.462,-2.575 -1.245,-0.467 -2.482,-0.917 -3.752,-1.509 -0.916,-0.427 -1.809,-0.862 -2.7,-1.301 0.256,1.483 0.54,2.963 0.88,4.433 1.531,0.937 3.029,1.872 4.545,2.742 0.866,0.497 1.739,0.977 2.623,1.424 0.871,0.442 1.832,0.857 2.744,1.287 l 8.064,3.721 0.124,1.084 -8.995,-2.803 c -0.98,-0.314 -1.936,-0.583 -2.938,-0.935 -0.988,-0.349 -1.959,-0.728 -2.921,-1.124 -0.691,-0.284 -1.368,-0.585 -2.047,-0.883 0.451,1.533 0.949,3.051 1.492,4.556 5.113,2.744 10.564,4.969 16.085,7.095 l 0.151,1.319 c -4.821,-1.094 -9.642,-2.264 -14.414,-3.797 0.587,1.351 1.221,2.681 1.884,3.997 0.506,0.227 1.019,0.441 1.588,0.669 l 5.466,2.223 -0.105,-0.028 c 2.05,0.625 4.117,1.246 6.154,1.948 l 0.094,0.817 c -2.199,-0.371 -4.414,-0.646 -6.634,-0.931 l -0.105,-0.028 -4.534,-1.003 1.161,2.148 c 0.468,0.249 0.914,0.499 1.323,0.728 0.565,0.321 1.105,0.588 1.745,0.894 l 3.69,1.791 -0.108,-0.03 c 1.328,0.478 2.682,0.919 4.029,1.388 l 0.09,0.79 c -1.496,-0.136 -2.999,-0.235 -4.509,-0.384 l -0.109,-0.03 -3.794,-0.787 3.622,6.701 c 1.702,0.197 3.402,0.412 5.095,0.649 2.166,0.343 4.332,0.633 6.48,1.067 l 3.224,0.613 c 1.075,0.25 2.147,0.484 3.21,0.75 l -0.082,0.572 c -2.183,-0.022 -4.346,-0.055 -6.529,-0.05 l -6.514,-0.025 -6.491,0.017 c -2.16,0.084 -4.316,0.051 -6.466,0.139 l -3.224,0.107 -3.214,0.177 c -2.142,0.086 -4.274,0.285 -6.405,0.434 -4.259,0.351 -8.483,0.886 -12.68,1.539 -0.892,0.141 -1.781,0.297 -2.669,0.457 17.321,0.701 39.431,3.002 39.431,3.002 l 0.161,0.929 c -18.1,-0.376 -47.587,0.436 -58.772,0.78 l -3.068,0.834 c -2.065,0.562 -4.152,1.1 -6.258,1.597 1.244,-0.012 2.51,-0.018 3.743,-0.016 6.524,-0.318 30.902,0.62 30.902,0.62 l 21.565,1.589 -0.204,0.672 c -6.513,0.12 -25.059,1.25 -33.619,1.787 0.459,0.008 0.911,0.013 1.353,0.013 -14.028,5.121 -28.018,10.354 -41.963,15.718 -13.586,5.25 -27.14,10.594 -40.608,16.159 l -0.117,-0.221 c 13.1,-6.405 26.308,-12.598 39.559,-18.701 9.222,-4.23 18.479,-8.388 27.752,-12.512 -2.863,0.048 -5.931,0.026 -9.271,0.021 -8.999,3.276 -17.948,6.771 -26.845,10.41 -11.186,4.585 -22.307,9.37 -33.338,14.369 l -0.042,-0.342 c 10.465,-6.031 21.051,-11.865 31.748,-17.52 4.226,-2.231 8.48,-4.416 12.749,-6.576 -3.232,0.157 -6.942,0.572 -10.928,1.183 -11.595,5.002 -23.171,9.982 -34.46,15.651 l -0.058,-0.471 c 5.452,-3.979 11.033,-7.793 16.672,-11.522 -3.826,0.701 -7.713,1.334 -11.465,2.521 -1.402,0.443 -3.416,1.024 -5.522,1.762 -1.746,1.029 -3.382,2.176 -4.822,3.478 -1.793,2.218 -2.894,4.927 -3.509,7.904 -0.159,0.722 -0.267,1.602 -0.44,2.392 -0.167,0.816 -0.274,1.536 -0.365,2.315 -0.176,1.533 -0.228,3.08 -0.145,4.626 0.319,6.205 2.787,12.254 6.361,17.56 0.657,0.983 1.362,1.936 2.088,2.876 0.259,0.336 0.511,0.676 0.778,1.006 0.506,0.628 1.027,1.246 1.561,1.854 0.291,0.336 0.601,0.677 0.907,1.023 0.364,-0.25 0.727,-0.492 1.09,-0.727 6.073,-3.936 11.695,-5.76 11.695,-5.76 0,0 -4.394,5.254 -4.228,7.375 -0.151,1.1 2.238,6.299 4.786,11.451 l 1.516,2.436 9.629,15.467 c 3.47,1.082 10.065,0.749 12.621,-3.323 0.507,-0.808 1.155,-7.131 0.437,-7.062 -3.413,0.276 -8.014,0.788 -12.026,1.494 l -0.197,-1.017 c 6.373,-2.507 11.375,-5.152 13.953,-8.482 -1.882,0.247 -3.756,0.463 -5.625,0.668 -0.512,0.056 -1.022,0.11 -1.533,0.165 -2.705,0.291 -5.403,0.574 -8.097,0.911 l -0.103,-0.532 c 3.051,-1.059 6.132,-2.045 9.188,-3.057 1.413,-0.466 2.811,-0.95 4.207,-1.434 0.518,-0.18 1.047,-0.348 1.56,-0.532 0.844,-0.303 1.684,-0.615 2.51,-0.937 0.301,-0.812 0.577,-1.604 0.829,-2.373 -1.056,0.159 -2.11,0.308 -3.163,0.447 -5.452,0.719 -10.865,1.231 -16.238,2.157 l -0.092,-0.473 c 5.205,-1.69 10.551,-2.992 15.774,-4.464 1.633,-0.46 3.249,-0.946 4.85,-1.457 0.356,-1.331 0.625,-2.489 0.821,-3.404 l -6.102,0.693 -5.476,0.623 c -3.724,0.421 -7.441,0.85 -11.144,1.401 l -0.109,-0.563 c 3.62,-0.994 7.276,-1.872 10.923,-2.738 l 6.494,-1.545 7.217,-1.718 1.852,-0.441 0.028,0.152 c 1.936,-0.307 3.884,-0.581 5.789,-1.043 l 12.698,-2.826 0.028,0.141 c 14.003,-3.444 27.88,-7.522 41.68,-11.746 4.12,-1.347 8.219,-2.85 12.3,-4.426 0.084,-0.037 0.17,-0.074 0.254,-0.11 l -15.177,-2.574 0.411,-0.575 22.144,-0.356 -0.014,0.194 c 1.07,-0.498 2.095,-0.984 3.063,-1.455 l -33.468,-4.393 v -0.132 l 40.48,0.864 c 1.362,-0.768 2.696,-1.557 4,-2.362 l -52.899,-4.108 0.297,-0.292 58.088,0.833 c 0.619,-0.423 1.222,-0.842 1.815,-1.26 l -43.31,-3.52 c 0.146,-0.057 0.291,-0.115 0.437,-0.173 l 48.175,-0.201 c 0.613,-0.469 1.197,-0.922 1.755,-1.36 l -37.248,-3.547 c 0.275,-0.114 0.563,-0.23 0.836,-0.343 l 41.348,-0.137 c 0.374,-0.317 0.687,-0.585 0.95,-0.812 -4.533,-0.565 -9.003,-1.218 -13.495,-1.823 -5.676,-0.783 -11.357,-1.514 -17.051,-2.181 0.296,-0.126 0.593,-0.252 0.889,-0.378 5.443,-0.198 10.892,-0.342 16.34,-0.435 4.461,-0.089 8.94,-0.133 13.368,-0.264 -4.881,-1.399 -13.238,-3.675 -19.963,-4.898 -0.267,-0.048 -0.533,-0.096 -0.794,-0.141 l 0.124,-0.676 c 0,0 18.371,-0.498 20.107,-0.355 l 1.641,0.117 -18.948,-24.222 c 0,0 -4.657,-14.357 -10.866,-29.185 -0.274,-0.654 -0.551,-1.307 -0.83,-1.961 -0.481,-0.717 -0.974,-1.427 -1.456,-2.143 -7.44,-4.128 -14.869,-8.196 -22.509,-11.927 l -0.18,-0.898 c 5.879,1.582 11.719,3.371 17.527,5.23 C 23.624,99.775 22.734,98.499 21.85,97.222 16.171,94.212 10.32,91.415 4.37,88.79 L 3.734,87.437 c 4.407,0.806 8.807,1.703 13.2,2.715 -0.046,-0.064 -0.09,-0.13 -0.136,-0.194 L 14.56,86.669 C 9.914,84.324 5.129,82.16 0.286,80.106 L -0.253,78.96 c 3.679,0.635 7.353,1.341 11.022,2.137 L 9.668,79.478 C 9.359,79.019 9.056,78.546 8.75,78.079 4.676,76.162 0.565,74.298 -3.571,72.479 -3.779,72.099 -3.988,71.717 -4.199,71.334 -0.811,72.078 2.574,72.843 5.955,73.648 5.279,72.548 4.585,71.449 3.881,70.349 0.218,68.76 -3.48,67.238 -7.223,65.808 -7.333,65.603 -7.444,65.4 -7.554,65.195 c 3.113,0.549 6.22,1.156 9.32,1.821 -0.421,-0.67 -0.833,-1.347 -1.245,-2.029 -3.377,-1.246 -6.76,-2.492 -10.141,-3.749 -0.236,-0.467 -0.466,-0.936 -0.696,-1.405 2.948,0.567 5.899,1.131 8.852,1.687 -0.198,-0.367 -0.406,-0.725 -0.598,-1.097 -0.201,-0.072 -0.406,-0.135 -0.607,-0.208 -2.535,-0.924 -5.036,-1.941 -7.462,-3.097 -0.65,-0.314 -1.278,-0.66 -1.916,-0.992 -0.196,-0.443 -0.392,-0.885 -0.579,-1.33 1.003,0.314 2.007,0.622 3.02,0.888 1.96,0.507 3.936,0.923 5.921,1.275 -0.471,-1.112 -0.9,-2.258 -1.279,-3.414 -0.319,-0.106 -0.642,-0.198 -0.959,-0.309 -2.17,-0.754 -4.292,-1.615 -6.357,-2.566 -0.787,-0.361 -1.554,-0.756 -2.32,-1.15 -0.113,-0.347 -0.225,-0.695 -0.33,-1.043 1.04,0.275 2.084,0.529 3.133,0.745 1.836,0.381 3.677,0.671 5.519,0.9 0.167,0.336 0.361,0.66 0.59,0.967 -0.451,-1.649 -0.797,-3.327 -1.084,-5.015 -0.004,0.285 -0.012,0.569 -0.01,0.853 -1.982,-0.786 -3.909,-1.671 -5.793,-2.61 -1.344,-0.662 -2.651,-1.384 -3.947,-2.118 -0.039,-0.163 -0.076,-0.326 -0.112,-0.489 1.52,0.426 3.04,0.837 4.573,1.169 1.65,0.368 3.301,0.673 4.954,0.927 -0.064,-0.513 -0.128,-1.025 -0.177,-1.539 -3.198,-1.701 -6.347,-3.473 -9.455,-5.297 0.015,-0.108 0.031,-0.217 0.047,-0.325 3.061,0.945 6.131,1.83 9.209,2.659 -0.027,-0.647 -0.045,-1.292 -0.052,-1.937 -2.854,-1.644 -5.662,-3.342 -8.444,-5.072 0.03,-0.154 0.053,-0.301 0.084,-0.455 2.787,0.909 5.582,1.778 8.382,2.601 0.018,-0.623 0.042,-1.243 0.075,-1.861 -2.528,-1.574 -5.039,-3.17 -7.536,-4.784 0.05,-0.202 0.102,-0.404 0.154,-0.608 2.496,0.874 4.998,1.727 7.504,2.561 l 0.089,-2.004 c -2.213,-1.402 -4.411,-2.825 -6.608,-4.249 0.076,-0.271 0.153,-0.546 0.23,-0.819 2.174,0.76 4.351,1.51 6.531,2.25 0.056,-0.664 0.125,-1.326 0.208,-1.986 l -5.782,-3.618 c 0.081,-0.282 0.162,-0.565 0.244,-0.848 l 5.922,1.874 c 0.069,-0.402 0.137,-0.803 0.213,-1.202 0.08,-0.405 0.18,-0.803 0.267,-1.206 -1.756,-1.126 -3.52,-2.246 -5.291,-3.359 0.084,-0.301 0.165,-0.602 0.249,-0.902 1.876,0.569 3.752,1.148 5.627,1.734 0.173,-0.685 0.354,-1.366 0.545,-2.045 -1.669,-1.043 -3.349,-2.076 -5.038,-3.102 0.104,-0.225 0.201,-0.454 0.311,-0.674 1.812,0.452 3.626,0.917 5.44,1.392 0.274,-0.879 0.56,-1.753 0.859,-2.623 -1.427,-0.775 -2.866,-1.538 -4.319,-2.285 0.138,-0.226 0.279,-0.458 0.411,-0.671 1.56,0.235 3.122,0.492 4.686,0.763 0.075,-0.202 0.155,-0.4 0.231,-0.6 0.621,-1.632 1.27,-3.24 1.987,-4.871 z m 0.056,-1.786 c 0.001,0.019 0.025,0.063 0.066,0.115 C 0.09,-1.767 0.057,-1.82 0.056,-1.786 m -233.675,-5.168 c -0.96,-0.067 -1.987,-0.062 -3.019,-0.043 l -3.674,0.078 -0.176,-0.372 3.304,-1.777 c 0.472,-0.25 0.951,-0.5 1.439,-0.746 -0.125,-0.167 -0.248,-0.336 -0.374,-0.503 l -0.186,-0.247 -0.085,-0.359 -0.002,-0.007 -0.189,-0.709 c -0.79,-0.024 -1.618,-0.011 -2.457,0.004 -1.31,0.027 -2.646,0.028 -3.952,-0.077 v -0.332 c 1.172,-0.495 2.293,-1.058 3.412,-1.664 0.693,-0.37 1.396,-0.754 2.144,-1.118 l -0.634,-2.366 c -0.78,0.056 -1.59,0.158 -2.411,0.269 -0.825,0.109 -1.668,0.222 -2.511,0.284 v -0.679 c 1.388,-0.814 2.68,-1.779 4.191,-2.635 -0.182,-0.682 -0.365,-1.363 -0.543,-2.048 -0.376,0.045 -0.755,0.094 -1.137,0.145 -0.825,0.11 -1.668,0.223 -2.511,0.285 v -0.679 c 1.053,-0.618 2.054,-1.321 3.132,-2.001 -0.122,-0.759 -0.221,-1.519 -0.298,-2.279 -0.198,0.03 -0.395,0.059 -0.594,0.09 -0.736,0.113 -1.487,0.229 -2.24,0.31 v -0.837 c 0.889,-0.554 1.747,-1.166 2.653,-1.764 -0.036,-0.623 -0.065,-1.245 -0.086,-1.864 -0.013,-0.381 -0.016,-0.759 -0.021,-1.138 -0.826,0.342 -1.677,0.699 -2.546,0.95 v -0.499 c 0.574,-0.585 1.085,-1.222 1.615,-1.864 0.305,-0.371 0.615,-0.748 0.939,-1.125 0.016,-0.824 0.041,-1.643 0.067,-2.459 -0.137,-0.022 -0.296,-0.036 -0.414,-0.016 -0.034,0.001 -0.062,0.007 -0.075,0.01 l -0.131,0.061 c -0.22,0.101 -0.495,0.237 -0.725,0.362 -0.472,0.258 -0.899,0.54 -1.257,0.837 -0.356,0.298 -0.633,0.612 -0.84,0.929 -0.105,0.164 -0.182,0.31 -0.26,0.498 l -0.347,0.858 -1.543,3.717 c -1.003,2.43 -1.938,4.821 -2.585,7.216 -0.653,2.378 -0.979,4.755 -0.854,7.079 0.395,2.964 0.818,5.977 1.047,9.072 0.214,2.756 0.205,5.588 -0.113,8.412 0.19,-0.241 0.382,-0.482 0.572,-0.722 1.488,-1.88 2.949,-3.799 4.51,-5.628 -1.147,2.109 -2.171,4.273 -3.242,6.428 -0.796,1.603 -1.586,3.204 -2.456,4.801 -0.083,0.356 -0.17,0.707 -0.263,1.049 -0.428,1.564 -0.927,3.009 -1.323,4.403 -0.399,1.393 -0.696,2.735 -0.775,4.041 -0.082,1.306 0.058,2.574 0.43,3.81 l 0.055,0.184 0.018,0.13 c 0.186,1.336 0.66,2.178 1.686,2.745 0.549,0.31 1.251,0.506 2.021,0.626 -0.604,-0.853 -1.293,-2.294 -0.962,-4.181 0.334,-3.323 2.934,-10.934 4.215,-13.771 0,0 -0.002,3.858 -0.939,8.157 0.136,2.989 -1.135,7.408 0.96,9.407 0.285,0.266 0.63,0.388 0.993,0.455 0.938,-0.073 1.891,-0.178 2.851,-0.3 0.585,-0.069 1.179,-0.147 1.772,-0.224 -1.129,-1.737 -2.34,-3.488 -3.416,-5.283 2.712,1.813 5.535,3.27 8.346,5.273 l -0.158,0.144 c 1.463,1.319 2.834,2.735 4.133,4.206 1.933,2.19 3.708,4.5 5.372,6.807 2.88,3.886 5.692,7.824 8.494,11.752 1.259,1.766 2.517,3.529 3.78,5.289 4.046,5.64 8.152,11.215 12.468,16.61 0.331,0.414 0.65,0.837 0.984,1.249 l 0.253,0.313 0.063,0.398 c 0.381,2.405 0.87,4.783 1.501,7.109 1.575,0.425 3.142,0.863 4.701,1.314 2.862,0.83 5.703,1.694 8.55,2.555 l 1.593,0.49 9.724,2.987 0.633,0.773 -8.72,-1.67 -3.691,-0.708 c -2.289,-0.429 -4.581,-0.855 -6.872,-1.268 -1.594,-0.287 -3.187,-0.562 -4.778,-0.824 0.633,1.775 1.385,3.499 2.25,5.163 l 4.598,1.035 13.544,3.048 9.279,2.088 0.572,0.7 -8.454,-1.005 -13.709,-1.631 -3.53,-0.42 c 0.82,0.946 1.817,1.758 2.961,2.502 0.631,0.415 1.289,0.81 1.983,1.231 l 0.205,0.123 c 2.535,0.499 5.051,1.028 7.556,1.575 2.352,0.513 4.698,1.036 7.048,1.565 0.554,0.125 1.107,0.256 1.661,0.383 3.217,0.735 6.431,1.481 9.641,2.237 l 0.864,1.056 c -4.187,-0.394 -8.375,-0.779 -12.561,-1.136 -1.518,-0.127 -3.039,-0.254 -4.559,-0.377 0.156,0.08 0.31,0.163 0.466,0.242 5.634,2.839 11.378,5.53 17.146,8.091 l 0.13,0.057 0.344,0.153 0.241,0.447 10.87,20.18 5.353,10.147 c 1.745,3.417 3.487,6.775 5.308,10.115 2.941,5.42 6.163,10.66 9.653,15.732 1.342,1.196 2.847,2.451 4.516,3.724 l 0.011,0.016 0.015,0.004 c 1.001,0.763 2.05,1.53 3.165,2.294 7.527,5.15 17.68,7.053 22.45,7.694 2.927,-0.921 5.865,-1.761 8.812,-2.563 -0.081,-0.679 -0.215,-1.681 -0.421,-2.946 -2.815,-0.508 -5.624,-1.027 -8.424,-1.561 -5.082,-0.969 -10.155,-1.944 -15.234,-2.895 -0.315,-0.275 -0.627,-0.567 -0.94,-0.853 5.513,0.093 11.027,0.221 16.533,0.34 2.382,0.05 4.761,0.092 7.137,0.126 -0.205,-0.937 -0.435,-1.924 -0.698,-2.961 -4.355,-0.742 -8.691,-1.526 -13.026,-2.326 -5.746,-1.068 -11.478,-2.179 -17.206,-3.303 -0.222,-0.305 -0.438,-0.623 -0.656,-0.937 6.083,0.305 12.165,0.594 18.243,0.833 3.706,0.143 7.414,0.274 11.116,0.378 -0.235,-0.74 -0.486,-1.491 -0.751,-2.251 -4.748,-1.081 -9.526,-2.099 -14.313,-3.079 -6.101,-1.243 -12.224,-2.422 -18.352,-3.583 -0.111,-0.277 -0.223,-0.553 -0.33,-0.823 6.374,0.3 12.749,0.619 19.129,1.008 3.883,0.241 7.766,0.502 11.653,0.803 -0.42,-0.964 -0.865,-1.933 -1.338,-2.902 -10.759,-2.629 -21.544,-5.15 -32.4,-7.404 -0.092,-0.32 -0.179,-0.636 -0.265,-0.952 9.833,0.676 19.66,1.574 29.476,2.573 -0.41,-0.661 -0.829,-1.319 -1.268,-1.969 -0.218,-0.322 -0.464,-0.643 -0.704,-0.964 -4.126,-1.146 -8.274,-2.251 -12.429,-3.337 l -17.523,-4.469 c -0.123,-0.264 -0.249,-0.533 -0.381,-0.811 l 18.522,1.909 c 2.051,0.224 4.101,0.452 6.152,0.686 -0.95,-0.844 -1.952,-1.679 -2.994,-2.503 -2.874,-0.814 -5.753,-1.614 -8.638,-2.389 -5.57,-1.488 -11.166,-2.896 -16.784,-4.231 -0.267,-0.37 -0.545,-0.742 -0.84,-1.116 -0.079,-0.097 -0.153,-0.197 -0.23,-0.295 6.114,0.661 12.225,1.412 18.328,2.255 -14.265,-9.148 -30.784,-15.844 -30.784,-15.844 l 0.48,-1.934 h 18.862 c 0,0 -3.755,-13.258 -5.549,-13.655 -0.315,-0.07 -0.961,-0.384 -1.849,-0.859 0.055,0.226 0.111,0.451 0.166,0.677 0.616,2.538 1.201,5.091 1.724,7.648 l -1.584,-0.693 c -1.078,-1.9 -2.179,-3.783 -3.31,-5.651 -1.092,-1.817 -2.207,-3.617 -3.306,-5.465 -0.549,-0.297 -1.113,-0.598 -1.688,-0.901 0.089,0.348 0.181,0.696 0.268,1.043 0.71,2.765 1.387,5.546 1.995,8.332 l -0.36,-0.158 -1.034,-0.452 c -1.224,-2.15 -2.472,-4.282 -3.76,-6.393 -1.08,-1.788 -2.182,-3.553 -3.272,-5.363 -0.465,-0.203 -0.929,-0.399 -1.392,-0.587 0.884,3.241 1.72,6.496 2.512,9.757 l -1.133,-0.495 c -1.519,-2.809 -3.066,-5.598 -4.655,-8.364 -0.478,-0.839 -0.959,-1.673 -1.441,-2.507 -0.222,-0.058 -0.443,-0.114 -0.661,-0.164 -0.244,-0.058 -0.507,-0.123 -0.778,-0.192 0.979,3.019 1.893,6.061 2.707,9.115 l -0.751,-0.329 c -1.725,-2.837 -3.512,-5.62 -5.379,-8.351 l -1.221,-1.772 c -11.182,-3.46 -29.836,-10.438 -29.836,-10.438 l 0.238,-1.537 c 0,0 8.779,1.656 15.503,2.69 3.885,0.598 7.085,0.989 7.506,0.732 0.21,-0.129 -0.484,-1.271 -1.748,-3.041 -6.327,-2.622 -12.828,-4.965 -19.439,-7.06 -1.154,-0.366 -2.312,-0.724 -3.473,-1.076 l -0.384,-1.098 c 5.882,0.415 11.769,1.016 17.658,1.837 -0.929,-1.178 -1.902,-2.4 -2.892,-3.637 -6.203,-2.314 -12.547,-4.392 -18.976,-6.274 l -0.92,-1.415 c 4.852,0.257 9.708,0.613 14.573,1.108 -1.04,-1.276 -2.048,-2.507 -2.984,-3.647 -5.428,-1.89 -10.974,-3.578 -16.57,-5.129 l -0.769,-1.183 c 4.255,0.174 8.515,0.429 12.782,0.79 -0.836,-1.009 -1.336,-1.608 -1.336,-1.608 l -1.004,-1.284 c -5.037,-1.614 -10.112,-3.155 -15.21,-4.638 l -0.87,-1.172 c 4.15,0.355 8.3,0.733 12.451,1.17 l -2.333,-2.984 c -4.708,-1.33 -9.449,-2.575 -14.224,-3.717 l -0.508,-0.685 c 3.957,0.182 7.917,0.435 11.877,0.752 l -0.257,-0.329 c -0.818,-0.683 -1.634,-1.378 -2.438,-2.101 -3.959,-0.831 -7.958,-1.529 -11.988,-2.102 l -0.708,-0.954 c 3.136,-0.133 6.283,-0.193 9.437,-0.173 -0.295,-0.326 -0.595,-0.653 -0.871,-0.972 -0.495,-0.561 -0.981,-1.134 -1.47,-1.702 -3.68,-0.888 -7.379,-1.73 -11.091,-2.535 l -0.299,-0.402 c 2.991,-0.004 5.985,0.02 8.982,0.066 -0.755,-0.907 -1.504,-1.819 -2.245,-2.737 l -9.939,-1.643 -0.71,-0.957 8.11,-0.581 c -0.651,-0.829 -1.296,-1.662 -1.939,-2.496 l -9.14,-0.923 -2.342,-0.236 -0.54,-0.947 1.773,-0.31 7.412,-1.298 c -0.691,-0.917 -1.379,-1.834 -2.064,-2.754 -1.953,-0.014 -3.974,0.081 -6.006,0.149 -1.14,0.04 -2.284,0.068 -3.427,0.074 l -0.484,-1.024 c 1.181,-0.362 2.352,-0.753 3.522,-1.157 1.301,-0.445 2.603,-0.907 3.935,-1.347 -0.301,-0.408 -0.602,-0.815 -0.903,-1.223 -0.179,-0.243 -0.359,-0.485 -0.538,-0.728 -0.117,-0.01 -0.228,-0.025 -0.346,-0.033 -1.211,-0.08 -2.504,-0.07 -3.802,-0.073 -1.355,-0.001 -2.73,-0.018 -4.084,-0.127 l -0.201,-0.426 c 1.312,-0.448 2.577,-0.985 3.848,-1.544 0.242,-0.105 0.486,-0.212 0.729,-0.319 0.496,-0.218 0.997,-0.436 1.51,-0.65 -0.517,-0.699 -1.037,-1.394 -1.554,-2.091 m -7.218,-29.792 -0.02,0.01 c 0.023,-0.006 0.077,-0.037 0.02,-0.01 m 140.76,294.287 c -0.009,-0.027 -0.036,-0.069 -0.07,-0.113 0.003,0.008 0.004,0.015 0.007,0.025 0.013,0.049 0.042,0.094 0.046,0.098 0.027,0.033 0.024,0.01 0.017,-0.01 m -0.658,-0.689 c -0.29,-0.23 -0.613,-0.442 -0.947,-0.644 -0.873,0.673 -1.663,1.454 -2.322,2.343 -0.375,0.496 -0.719,1.018 -1.021,1.561 -0.299,0.53 -0.586,1.128 -0.77,1.635 v 0 0.424 l -0.604,0.161 -5.77,1.544 c -0.609,0.71 -1.23,1.411 -1.882,2.091 l -0.526,-0.363 c 1.266,-2.669 2.772,-5.173 4.339,-7.635 1.507,-2.326 3.085,-4.603 4.875,-6.734 -0.198,-0.501 -0.443,-0.985 -0.775,-1.416 -0.083,-0.11 -0.187,-0.201 -0.278,-0.305 l -9.047,8.119 -0.425,-0.493 7.152,-10.091 c -0.235,-0.24 -0.493,-0.457 -0.782,-0.636 -0.316,-0.202 -0.657,-0.37 -1.013,-0.503 l -8.819,7.221 -0.504,-0.584 6.554,-8.483 c -0.337,-0.302 -0.711,-0.579 -1.118,-0.818 -0.268,-0.159 -0.561,-0.287 -0.848,-0.423 l -8.032,5.735 -0.632,-0.731 5.376,-6.304 c -0.846,-0.376 -1.694,-0.747 -2.546,-1.107 l -13.349,11.032 -0.399,0.854 -1.097,2.47 -0.236,0.553 -1.896,4.445 -0.039,0.092 -0.027,0.049 -12.911,23.424 -0.036,-0.02 c -0.17,0.305 -0.341,0.609 -0.513,0.913 -3.684,9.431 -8.986,24.433 -8.384,31.299 0.634,5.901 4.046,9.892 6.028,11.801 0.241,0.233 -0.038,0.793 -0.349,0.589 -6.023,-3.95 -10.474,-13.166 -11.91,-7.934 -0.26,1.059 -0.231,2.078 -0.019,3.039 0.47,2.127 1.858,3.954 3.152,5.266 2.498,1.645 5.033,3.211 7.648,4.617 1.28,0.683 2.562,1.32 3.898,1.926 1.352,0.652 2.669,1.289 4.001,1.99 1.325,0.698 2.639,1.452 3.898,2.313 1.266,0.843 2.466,1.868 3.559,2.765 4.501,3.664 9.397,6.83 14.576,9.458 2.592,1.309 5.26,2.472 7.986,3.486 1.873,0.695 3.774,1.316 5.684,1.92 1.256,0.32 2.361,0.618 3.289,0.882 3.131,3.899 6.458,7.654 10.385,10.572 4.576,-0.927 9.141,-1.681 13.702,-2.438 4.88,-0.804 9.756,-1.605 14.623,-2.485 -4.733,1.435 -9.493,2.796 -14.247,4.157 -3.401,0.978 -6.804,1.954 -10.167,2.994 1.012,0.46 2.045,0.874 3.109,1.216 l -0.037,-0.157 c 8.181,-1.331 16.317,-2.683 24.412,-4.46 -5.848,2.163 -11.799,4.105 -17.758,5.974 1.852,0.189 3.742,0.252 5.664,0.162 0.73,-0.057 1.578,-0.147 2.474,-0.255 3.037,-0.541 6.059,-1.267 9.146,-1.84 1.896,-0.536 3.278,-0.927 3.278,-0.927 l -1.538,12.342 -0.199,1.593 -0.499,4.004 -0.038,0.306 c -0.012,0.457 -0.023,0.899 -0.031,1.324 -0.006,0.315 -0.011,0.619 -0.016,0.917 -0.008,0.554 -0.013,1.087 -0.015,1.584 -0.02,6.571 0.498,8.29 0.815,8.729 0.234,0.156 0.465,0.251 0.696,0.262 0.611,0.029 1.203,-0.555 1.64,-1.174 0.436,-0.618 0.81,-1.278 1.247,-1.983 1.769,-2.856 4.756,-4.93 8.276,-7.021 1.704,-1.013 3.266,-2.567 4.978,-3.667 0.353,-0.205 1.367,-1.286 2.291,-2.314 l -9.053,0.518 -0.26,-1.174 11.256,-3.854 0.126,-1.647 -12.443,0.713 -0.183,-0.824 12.974,-4.443 0.116,-1.511 -14.228,0.816 -0.105,-0.475 14.692,-5.03 0.003,-0.047 0.204,-2.665 -16.657,2.098 c -0.206,-0.123 -0.382,-0.257 -0.523,-0.405 l 21.541,-6.965 c 0.149,-0.179 0.297,-0.358 0.446,-0.537 l -2.921,0.072 c -2.822,0.087 -5.644,0.24 -8.464,0.481 -1.962,0.176 -3.925,0.382 -5.878,0.669 0.187,-0.207 0.374,-0.415 0.562,-0.616 1.679,-0.519 3.377,-0.986 5.082,-1.426 2.772,-0.703 5.57,-1.322 8.383,-1.875 l 6.475,-1.231 c 0.392,-0.474 0.779,-0.952 1.17,-1.427 -0.754,-0.055 -1.512,-0.108 -2.256,-0.164 -2.477,-0.117 -5.012,-0.203 -7.525,-0.276 -1.525,-0.034 -3.052,-0.076 -4.578,-0.084 0.224,-0.226 0.447,-0.451 0.667,-0.677 1.272,-0.22 2.548,-0.42 3.821,-0.628 2.502,-0.391 4.983,-0.769 7.525,-1.119 1.777,-0.194 3.517,-0.395 5.255,-0.603 0.115,-0.142 0.234,-0.283 0.349,-0.426 0.629,-0.785 1.257,-1.568 1.884,-2.352 l -2.803,-0.167 c -1.989,-0.13 -3.971,-0.202 -5.963,-0.302 l -4.774,-0.224 c 0.077,-0.091 0.15,-0.182 0.227,-0.274 l 4.474,-0.678 c 1.974,-0.292 3.955,-0.613 5.935,-0.876 l 5.484,-0.76 c 0.311,-0.401 0.63,-0.797 0.936,-1.201 0.624,-0.804 1.225,-1.622 1.829,-2.439 l -2.624,-0.026 -11.175,-0.209 c 0.058,-0.079 0.117,-0.159 0.175,-0.239 l 10.821,-1.901 5.166,-0.955 c 0.289,-0.425 0.594,-0.84 0.875,-1.268 0.496,-0.771 0.974,-1.55 1.438,-2.336 -1.17,-0.007 -2.336,-0.022 -3.497,-0.041 -2.735,-0.054 -5.472,-0.119 -8.203,-0.253 -0.613,-0.03 -1.226,-0.067 -1.838,-0.105 0.09,-0.137 0.179,-0.272 0.269,-0.407 0.747,-0.105 1.493,-0.215 2.237,-0.331 2.455,-0.381 4.9,-0.811 7.343,-1.252 1.845,-0.341 3.684,-0.681 5.492,-1.066 0.253,-0.576 0.492,-1.156 0.693,-1.748 0.193,-0.547 0.362,-1.102 0.524,-1.658 l -9.893,-0.519 -2.03,-0.106 c 0.086,-0.129 0.175,-0.255 0.262,-0.384 l 2.25,-0.371 9.514,-1.571 c 0.386,-1.508 0.509,-3.024 0.438,-4.505 -2.384,0.066 -4.768,0.11 -7.151,0.115 -0.207,10e-4 -0.414,-0.001 -0.62,-0.001 0.121,-0.169 0.245,-0.34 0.367,-0.509 0.159,-0.035 0.319,-0.067 0.478,-0.103 2.242,-0.497 4.475,-1.029 6.702,-1.579 -1.084,-6.689 -5.487,-12.188 -5.487,-12.188 l -0.785,-3.293 -1.093,-4.579 -4.639,-8.808 c -1.944,-3.286 -4.17,-7.472 -6.13,-11.31 -3.621,-6.494 -4.366,-8.872 -5.485,-11.437 -0.528,-1.67 -1.146,-3.192 -1.458,-4.62 -0.594,-3.048 -0.814,-6.276 -0.949,-10.032 -0.104,-1.694 -0.175,-3.806 -0.348,-6.393 -0.165,-2.202 -0.197,-4.712 -0.334,-7.213 -0.067,-1.222 1.474,-1.833 2.262,-0.869 0.018,0.023 0.037,0.046 0.055,0.068 1.142,1.372 1.811,3.051 1.923,4.79 0.116,1.794 0.275,3.699 0.416,5.675 0.096,1.249 0.171,2.219 0.222,2.872 0.375,4.233 0.865,7.342 2.004,10.851 0.158,0.324 0.392,0.843 0.677,1.492 1.928,2.25 3.645,4.232 5.78,5.831 0.219,0.153 0.439,0.301 0.746,0.324 0.457,0.035 0.726,-0.12 0.889,-0.353 -0.496,-3.522 -0.944,-7.051 -1.42,-10.576 l -0.725,-5.729 -0.687,-5.696 -0.576,-2.898 -11.131,-15.281 -3.021,-5.505 c -0.941,0.232 -1.881,0.467 -2.823,0.697 -0.442,0.101 -0.882,0.217 -1.321,0.337 -2.561,3.345 -4.468,7.186 -5.694,10.968 -0.585,1.737 -0.862,3.462 -1.053,5.183 l 0.074,0.218 c -0.033,0.008 -0.066,0.013 -0.099,0.021 -0.193,1.82 -0.302,3.636 -0.565,5.458 l 8.818,-1.233 0.034,0.506 -9.551,4.097 c -0.226,0.848 -0.494,1.687 -0.783,2.52 l 4.592,-0.932 c 1.389,-0.259 2.787,-0.47 4.179,-0.708 l 1.871,-0.31 0.036,0.549 -1.645,0.674 c -1.303,0.542 -2.617,1.058 -3.911,1.619 l -6.726,3.046 c -0.333,0.711 -0.679,1.414 -1.047,2.106 l 5.423,-1.005 8.245,-1.304 0.026,0.394 -7.81,2.753 -8.272,3.163 c -0.579,0.853 -1.205,1.673 -1.857,2.473 l 16.262,-2.895 -0.027,0.317 -19.473,6.473 c -0.398,0.496 -0.788,0.997 -1.159,1.513 -0.148,0.207 -0.28,0.411 -0.416,0.617 l 9.22,-1.727 c 2.27,-0.423 4.541,-0.787 6.814,-1.183 l 4.601,-0.788 -0.028,0.333 -4.345,1.377 c -2.197,0.704 -4.411,1.379 -6.598,2.108 l -11.615,3.881 c -0.255,0.764 -0.464,1.559 -0.649,2.397 l 8.749,-2.159 c 2.497,-0.616 5.015,-1.199 7.517,-1.786 v 0.383 c -2.304,1.061 -4.6,2.11 -6.89,3.196 l -2.421,1.149 -0.367,1.113 c -0.134,0.417 -0.283,0.825 -0.426,1.237 l 2.964,-0.732 c 1.485,-0.353 2.989,-0.647 4.481,-0.973 l 2.659,-0.567 v 0.421 l -2.362,1.048 c -1.392,0.627 -2.794,1.22 -4.176,1.873 l -4.876,2.355 c -0.268,0.63 -0.542,1.251 -0.828,1.854 l 0.875,-0.206 c 2.142,-0.506 4.305,-0.98 6.452,-1.456 l -0.077,0.453 c -1.92,0.926 -3.832,1.842 -5.74,2.793 l -3.099,1.544 c -0.261,0.514 -0.522,1.042 -0.783,1.581 l 1.971,-0.465 c 2.144,-0.506 4.31,-0.98 6.459,-1.457 l -0.188,0.505 c -1.885,0.908 -3.762,1.809 -5.636,2.743 l -4.203,2.093 c -0.191,0.423 -0.375,0.834 -0.554,1.238 l 2.846,-0.671 c 2.059,-0.486 4.137,-0.942 6.202,-1.4 l -0.164,0.56 c -1.807,0.87 -3.607,1.735 -5.403,2.631 l -5.059,2.519 c -0.4,0.946 -0.644,1.539 -0.644,1.539 5.146,-2.192 11.409,-3.613 11.409,-3.613 l 0.629,0.496 -6.672,4.721 10.565,-1.656 0.697,0.55 c -3.979,2.31 -8.065,4.543 -12.057,6.888 5.187,-1.41 10.401,-2.622 15.634,-4.071 l 0.926,0.73 c 0,0 -19.011,8.133 -26.108,15.035 0.356,-0.133 0.712,-0.265 1.069,-0.398 l 8.202,-3.101 c 3.106,-1.212 6.226,-2.404 9.357,-3.561 l 0.207,0.808 c -2.942,1.467 -5.867,2.966 -8.785,4.486 l -7.837,3.978 c -1.804,0.904 -3.608,1.813 -5.462,2.68 -0.347,0.84 -0.579,1.713 -0.722,2.604 l 14.279,-5.375 c 3.242,-1.219 6.492,-2.416 9.754,-3.573 l 0.203,0.793 c -3.08,1.475 -6.142,2.988 -9.192,4.519 l -15.144,7.609 c 0.048,0.521 0.118,1.038 0.205,1.551 0.11,0.348 0.243,0.687 0.391,1.022 1.754,-0.715 3.514,-1.47 5.272,-2.226 l 8.138,-3.549 11.349,-4.944 0.184,0.722 -10.447,6.313 -7.61,4.602 c -1.226,0.733 -2.452,1.466 -3.692,2.191 4.468,1.722 10.319,-1.744 13.851,-3.845 0.547,-0.327 1.069,-0.671 1.598,-1.01 0.741,-0.533 1.496,-1.075 2.263,-1.623 6.592,-4.984 12.779,-10.171 18.691,-15.135 3.823,-3.179 7.659,-6.362 12.586,-9.918 l -10.615,2.456 -8.857,2.1 -0.289,-0.378 8.568,-3.561 9.356,-3.83 -1.411,-1.489 -7.418,1.093 c -1.36,0.185 -2.706,0.438 -4.057,0.669 l -2.18,0.378 -0.182,-0.394 2.108,-0.899 c 1.267,-0.536 2.526,-1.094 3.808,-1.586 l 5.248,-2.081 -1.978,-2.085 -5.013,0.861 -4.14,0.769 -0.315,-0.363 3.815,-2.195 3.123,-1.741 -4.126,-4.351 c -0.621,-0.777 -0.408,-1.419 0.305,-1.083 l 4.029,2.772 c 1.255,0.772 2.65,1.763 3.873,2.776 l 11.08,7.346 c 0.944,0.62 1.52,1.528 1.737,2.5 0.085,0.38 0.112,0.769 0.086,1.155 -0.079,1.19 -0.673,2.351 -1.794,3.099 -1.595,1.024 -3.157,2.086 -4.709,3.158 0.194,10e-4 0.389,-0.003 0.583,0 l 3.79,0.076 c 0.505,0.02 1.004,0.027 1.505,0.033 l -1.025,0.835 c -0.127,0.029 -0.256,0.063 -0.383,0.091 l -3.666,0.88 c -1.903,0.472 -3.796,0.98 -5.69,1.488 -0.632,0.442 -1.264,0.885 -1.899,1.323 -0.112,0.078 -0.23,0.164 -0.343,0.244 0.623,-0.02 1.246,-0.046 1.869,-0.06 1.309,-0.028 2.62,-0.042 3.928,-0.034 l 1.351,0.008 -0.794,0.647 -0.49,0.092 c -1.279,0.24 -2.551,0.501 -3.82,0.777 -1.988,0.431 -3.967,0.902 -5.943,1.386 -0.037,0.027 -0.074,0.055 -0.111,0.082 -0.455,0.336 -0.918,0.68 -1.383,1.026 0.219,0.017 0.439,0.032 0.659,0.05 0.188,0.015 0.375,0.026 0.563,0.042 l 3.678,0.335 c 0.653,0.07 1.3,0.128 1.948,0.177 l -0.719,0.581 c -0.4,0.07 -0.8,0.143 -1.197,0.205 l -3.617,0.628 c -0.734,0.133 -1.465,0.277 -2.198,0.417 -1.06,0.203 -2.12,0.411 -3.178,0.626 -0.654,0.498 -1.313,1.001 -1.978,1.512 0.755,-0.015 1.51,-0.041 2.264,-0.052 l 1.629,-0.014 2.387,-0.021 c 0.559,-0.003 1.117,-0.001 1.674,0 l -0.767,0.588 c -0.278,0.053 -0.557,0.104 -0.835,0.159 l -3.264,0.648 -0.662,0.131 c -1.982,0.406 -3.958,0.836 -5.935,1.265 -0.645,0.499 -1.293,1.002 -1.943,1.507 l 7.045,-0.241 1.124,-0.039 -0.763,0.585 -0.735,0.137 -9.352,1.73 c -0.548,0.472 -1.182,1.031 -1.951,1.723 l 8.521,-0.419 -0.194,0.335 -10.095,1.762 c -1.463,1.775 -2.797,3.598 -3.887,5.428 -0.947,1.589 -1.492,2.939 -2.385,5.003 -0.584,1.097 -0.916,2.035 -1.5,2.878 -0.326,0.393 -0.625,0.754 -0.957,0.95 -0.27,0.154 -0.617,0.268 -0.983,0.433 -0.422,0.164 -0.867,0.292 -1.317,0.393 l 0.021,0.103 -0.298,0.021 -0.831,0.059 -1.108,0.078 -9.841,0.691 -0.59,-0.61 5.968,-2.014 c -0.046,-0.079 -0.091,-0.16 -0.133,-0.243 l -3.308,0.192 -8.498,0.465 -0.346,-0.524 8.412,-2.475 0.361,-0.107 -5.308,0.034 -8.239,0.087 -0.795,-0.532 8.745,-2.109 1.111,-0.263 -0.86,-0.413 0.002,0.018 c -3.795,0.039 -7.701,0.397 -11.61,0.613 -2.501,0.153 -5.003,0.338 -7.5,0.595 l -1.133,-0.399 c 2.762,-0.784 5.559,-1.461 8.362,-2.104 2.072,-0.463 4.136,-0.965 6.223,-1.443 l -0.091,-0.043 c -0.119,-0.057 -0.239,-0.113 -0.358,-0.17 l -11.413,0.712 c -2.992,0.183 -5.985,0.393 -8.974,0.659 l -1.264,-0.496 c 3.279,-0.895 6.584,-1.708 9.894,-2.494 l 4.73,-1.128 -0.746,-0.334 c -3.932,-0.349 -8.105,0.108 -12.279,0.492 -2.64,0.259 -5.281,0.59 -7.918,0.979 l -1.1,-0.432 c 2.867,-0.892 5.763,-1.71 8.69,-2.447 1.939,-0.48 3.881,-0.962 5.863,-1.388 -0.28,-0.081 -0.559,-0.159 -0.841,-0.226 -2.538,-0.305 -5.099,-0.426 -7.651,-0.246 -2.589,0.168 -5.158,0.653 -7.694,1.354 -1.266,0.35 -2.536,0.752 -3.791,1.156 -1.25,0.43 -2.516,0.876 -3.787,1.282 -1.61,0.517 -3.231,0.994 -4.857,1.45 l -0.264,-0.155 c 1.646,-0.604 3.282,-1.23 4.9,-1.897 1.23,-0.505 2.437,-1.042 3.665,-1.579 1.243,-0.513 2.475,-1.016 3.743,-1.479 2.529,-0.923 5.17,-1.65 7.875,-2.045 2.083,-0.316 4.193,-0.439 6.3,-0.428 -1.039,-0.285 -2.11,-0.468 -3.196,-0.531 l -0.096,-0.005 c -3.489,-0.445 -7.036,-0.383 -10.489,0.434 -3.463,0.776 -6.789,2.281 -10.278,3.462 l 0.042,-0.018 c -1.842,0.816 -3.708,1.563 -5.593,2.252 l -0.513,-0.301 c 1.932,-0.866 3.833,-1.796 5.692,-2.791 l 0.004,-0.003 0.039,-0.016 c 3.318,-1.403 6.551,-3.178 10.149,-4.279 2.941,-0.935 6.056,-1.34 9.159,-1.346 -1.178,-0.343 -2.35,-0.549 -3.677,-0.586 -1.933,-0.185 -3.808,-0.098 -5.721,0.105 -1.901,0.25 -3.791,0.671 -5.663,1.204 -1.866,0.557 -3.711,1.224 -5.542,1.946 -2.812,1.101 -5.584,2.38 -8.442,3.418 l -0.244,-0.143 c 2.809,-1.276 5.504,-2.792 8.294,-4.156 1.783,-0.876 3.599,-1.706 5.471,-2.435 1.88,-0.705 3.814,-1.307 5.809,-1.736 1.633,-0.314 3.322,-0.534 4.99,-0.591 -0.613,-0.165 -1.244,-0.328 -1.911,-0.488 -9.271,-0.807 -16.268,3.076 -16.268,3.076 l -3.84,1.506 -0.06,0.023 c -1.034,0.514 -2.069,1.023 -3.112,1.515 l -0.668,-0.566 c 1.481,-1.092 2.947,-2.203 4.387,-3.34 l 1.35,-2.992 c -2.483,1.224 -4.991,2.382 -7.518,3.487 l -0.151,-0.418 c 3.232,-2.244 6.382,-4.588 9.452,-7.019 l 0.791,-1.752 c -3.777,1.919 -7.573,3.791 -11.391,5.607 l -0.203,-0.559 c 4.187,-2.974 8.327,-6.005 12.41,-9.098 0.068,-0.416 0.132,-0.832 0.198,-1.249 l -13.75,7.198 -0.175,-0.482 14.491,-10.365 c 0.081,-0.561 0.159,-1.122 0.236,-1.683 l -16.073,8.337 -0.118,-0.325 16.539,-10.664 c 0.09,-0.712 0.179,-1.424 0.261,-2.137 -5.471,2.844 -10.968,5.634 -16.509,8.329 l 0.127,-0.421 c 5.611,-3.418 11.157,-6.937 16.669,-10.505 0.052,-0.501 0.095,-1.003 0.142,-1.504 l -15.593,7.681 0.131,-0.475 15.889,-9.945 c 0.21,-0.72 0.431,-1.436 0.647,-2.155 -2.123,1.079 -4.239,2.173 -6.344,3.291 -3.083,1.648 -6.142,3.347 -9.171,5.103 l 0.104,-0.378 c 2.769,-1.988 5.572,-3.931 8.408,-5.829 2.601,-1.73 5.231,-3.42 7.875,-5.09 0.202,-0.651 0.421,-1.3 0.628,-1.95 -2.019,0.924 -4.025,1.884 -6.011,2.889 -3.246,1.645 -6.452,3.382 -9.593,5.241 l 0.075,-0.273 c 2.887,-2.123 5.856,-4.144 8.881,-6.084 2.464,-1.58 4.988,-3.074 7.538,-4.53 0.122,-0.371 0.235,-0.744 0.359,-1.115 0.186,-0.554 0.38,-1.107 0.57,-1.661 l -13.026,6.204 0.041,-0.408 14.061,-8.818 c 0.13,-0.353 0.253,-0.707 0.387,-1.061 0.259,-0.679 0.523,-1.357 0.794,-2.035 -4.994,2.313 -9.861,5.045 -14.813,7.587 l 0.037,-0.367 c 5.088,-3.405 10.039,-7.012 15.403,-10.145 l -1.052,-2.098 c -0.651,0.322 -1.302,0.647 -1.949,0.978 -2.497,1.284 -4.978,2.625 -7.468,3.947 l 0.054,-0.389 c 2.246,-1.558 4.483,-3.131 6.76,-4.664 0.632,-0.423 1.269,-0.842 1.908,-1.258 l -1.085,-2.165 c -2.328,1.219 -4.649,2.463 -6.979,3.691 l 0.032,-0.237 c 2.148,-1.48 4.288,-2.973 6.447,-4.45 l -1.115,-2.222 c -1.571,0.817 -3.149,1.631 -4.745,2.4 l 0.031,-0.222 c 1.446,-0.983 2.865,-2.006 4.285,-3.035 l -1.59,-3.171 0.129,-0.005 0.117,-0.005 8.654,12.405 1.167,0.026 c -1.229,-2.434 -2.475,-4.855 -3.786,-7.243 -0.985,-1.791 -2.004,-3.565 -3.072,-5.312 l 0.593,-0.025 c 1.222,1.52 2.406,3.073 3.563,4.646 1.926,2.624 3.779,5.305 5.602,7.997 l 1.492,0.033 c -1.525,-2.65 -3.088,-5.288 -4.687,-7.905 -1.006,-1.639 -2.022,-3.271 -3.057,-4.892 l 0.766,-0.032 c 1.127,1.387 2.241,2.785 3.346,4.19 2.246,2.866 4.456,5.756 6.617,8.705 l 1.642,0.036 c -1.761,-2.879 -3.659,-5.732 -5.549,-8.572 l -3.023,-4.486 0.843,-0.035 3.206,3.746 c 2.28,2.697 4.554,5.381 6.749,8.201 0.145,-0.08 0.291,-0.157 0.436,-0.237 l 2.764,-1.582 c 1.747,-1.021 3.489,-2.063 5.217,-3.114 0.731,-1.397 1.5,-2.772 2.272,-4.145 l 1.249,-2.156 0.627,-1.077 0.317,-0.536 c 0.026,-0.04 0.074,-0.068 0.112,-0.101 -0.099,-0.098 -0.186,-0.198 -0.307,-0.288 m -36.652,-36.336 2.133,3.052 0.07,-0.048 c -0.736,-1.002 -1.47,-2.003 -2.203,-3.004 m -59.634,-63.993 51.34,74.14 2.905,-1.977 -110.122,-160.451 0.259,7.907 z m 55.4,85.716 -0.065,0.055 0.069,-0.049 z m 14.591,-15.697 c 0.622,0.602 1.224,1.226 1.823,1.84 0.304,0.311 0.609,0.623 0.914,0.921 1.945,-2.683 2.462,-6.219 1.195,-9.44 l -0.113,-0.289 -8.061,5.4 -1.908,1.278 -10.626,7.119 -2.175,1.457 -8.827,5.913 0.437,0.476 c 1.964,2.134 4.803,3.133 7.63,2.917 -0.179,-0.356 -0.347,-0.709 -0.517,-1.063 -0.36,-0.755 -0.711,-1.504 -1.091,-2.242 l 0.441,-0.329 c 0.607,0.583 1.194,1.189 1.778,1.784 0.5,0.509 1.003,1.011 1.502,1.447 0.498,-0.15 0.987,-0.338 1.464,-0.568 -0.403,-0.696 -0.729,-1.372 -1.053,-2.045 -0.361,-0.758 -0.713,-1.508 -1.093,-2.247 l 0.44,-0.329 c 0.608,0.584 1.197,1.191 1.781,1.789 0.569,0.579 1.143,1.166 1.709,1.636 l 1.196,-0.842 c -0.386,-0.674 -0.706,-1.33 -1.022,-1.983 -0.029,-0.063 -0.06,-0.123 -0.09,-0.186 -0.296,-0.62 -0.591,-1.235 -0.899,-1.843 -0.039,-0.075 -0.073,-0.152 -0.111,-0.227 l 0.44,-0.33 c 0.235,0.227 0.459,0.462 0.689,0.693 0.288,0.289 0.579,0.577 0.863,0.868 0.077,0.079 0.158,0.158 0.236,0.237 0.539,0.548 1.082,1.098 1.618,1.556 l 1.22,-0.859 c -0.364,-0.645 -0.675,-1.276 -0.979,-1.903 -0.094,-0.196 -0.191,-0.386 -0.284,-0.58 -0.271,-0.566 -0.539,-1.132 -0.825,-1.686 l 0.44,-0.329 c 0.43,0.414 0.844,0.842 1.26,1.267 0.177,0.181 0.36,0.359 0.536,0.54 0.516,0.525 1.035,1.046 1.55,1.495 l 1.239,-0.873 c -0.347,-0.621 -0.65,-1.231 -0.945,-1.837 -0.155,-0.323 -0.316,-0.638 -0.471,-0.959 -0.213,-0.44 -0.422,-0.883 -0.646,-1.316 l 0.44,-0.33 c 0.334,0.322 0.653,0.654 0.977,0.984 0.275,0.279 0.555,0.554 0.827,0.832 0.497,0.507 0.997,1.007 1.493,1.446 l 1.258,-0.885 c -0.332,-0.599 -0.627,-1.189 -0.913,-1.775 -0.22,-0.456 -0.445,-0.904 -0.667,-1.355 -0.152,-0.309 -0.299,-0.623 -0.457,-0.929 l 0.44,-0.33 c 0.232,0.224 0.451,0.456 0.678,0.684 0.379,0.381 0.761,0.76 1.133,1.141 0.479,0.489 0.961,0.968 1.44,1.399 l 1.277,-0.899 c -0.315,-0.575 -0.6,-1.142 -0.875,-1.704 -0.288,-0.595 -0.577,-1.181 -0.871,-1.766 -0.088,-0.175 -0.17,-0.354 -0.26,-0.527 l 0.44,-0.33 c 0.127,0.123 0.247,0.251 0.373,0.376 0.487,0.483 0.97,0.971 1.444,1.457 0.466,0.475 0.934,0.941 1.4,1.364 l 0.125,-0.089 c 0.401,-0.281 0.769,-0.591 1.117,-0.917 -0.279,-0.52 -0.537,-1.034 -0.787,-1.545 -0.376,-0.775 -0.743,-1.543 -1.137,-2.3 z m -126.046,-167.987 -0.161,-0.225 0.131,3.54 0.106,3.231 111.62,162.635 4.549,-3.096 z m 203.193,378.073 c 1.206,0.448 2.39,0.881 3.556,1.267 1.175,0.356 2.327,0.68 3.451,0.858 2.227,0.418 4.349,0.33 6.452,-0.563 1.033,-0.446 1.993,-1.103 2.819,-1.922 0.558,-0.588 1.029,-1.266 1.387,-2.001 -0.99,-0.886 -4.097,-3.418 -7.296,-3.456 -3.857,0.143 -3.25,3.762 -3.25,3.762 0,0 -3.755,-3.118 -5.93,-3.23 -2.16,-0.107 -3.001,1.58 -3.012,1.602 0.09,-0.181 -4.433,-1.449 -4.826,-1.54 -1.042,-0.224 -2.11,-0.448 -2.968,-1.074 -0.113,-0.085 -0.217,-0.173 -0.313,-0.265 -0.965,-1.047 -1.556,-2.711 -2.369,-4.447 -0.41,-0.885 -0.758,-1.688 -1.015,-2.384 0.003,0.002 0.005,0.005 0.008,0.007 l -0.521,-0.976 c 0.135,-0.112 0.271,-0.224 0.407,-0.335 l 5.435,5.376 0.626,-0.845 -0.209,-0.312 -0.736,-1.144 -1.437,-2.282 -1.571,-2.524 c 0.197,-0.161 0.38,-0.31 0.539,-0.439 l 2.213,1.961 2.017,1.769 0.847,0.728 0.256,-0.346 -1.65,-2.249 -1.941,-2.717 c -1.046,-1.399 -2.129,-2.771 -3.209,-4.145 -0.356,0.459 -0.731,0.913 -1.149,1.348 -0.74,0.786 -1.595,1.55 -2.744,2.058 -0.568,0.255 -1.228,0.424 -1.917,0.43 -0.694,-0.005 -1.371,-0.193 -1.956,-0.512 -0.622,-0.348 -1.03,-0.73 -1.454,-1.213 -0.408,-0.478 -0.703,-1.038 -0.913,-1.57 -0.416,-1.01 -0.655,-2.264 -0.449,-3.445 0.194,-1.207 0.855,-2.231 1.537,-3.041 0.692,-0.822 1.444,-1.504 2.064,-2.236 0.614,-0.727 1.289,-1.374 1.961,-2.013 -0.221,-0.744 -0.481,-1.473 -0.833,-2.155 -0.428,-0.811 -0.962,-1.556 -1.578,-2.246 -0.614,-0.693 -1.312,-1.327 -2.028,-2.007 -0.326,-0.313 -0.658,-0.648 -0.975,-1.011 l -6.387,-6.374 c -0.015,0.065 -0.032,0.129 -0.04,0.194 -0.002,1.087 0.214,2.24 0.419,3.491 0.14,0.807 0.322,1.65 0.512,2.493 0.106,0.287 0.182,0.571 0.232,0.85 0.473,0.597 0.906,1.187 1.331,1.781 l 1.506,2.179 c 0.614,0.907 1.204,1.825 1.8,2.74 l -0.321,0.485 c -0.872,-0.73 -1.74,-1.466 -2.621,-2.179 l -2.042,-1.618 c -0.064,-0.048 -0.128,-0.096 -0.192,-0.144 -0.079,0.205 -0.158,0.412 -0.243,0.605 -0.173,0.39 -0.371,0.846 -0.576,1.348 0.145,0.199 0.292,0.399 0.435,0.599 l 1.506,2.179 c 0.545,0.805 1.067,1.62 1.597,2.431 l -0.381,0.576 c -0.785,-0.656 -1.565,-1.319 -2.358,-1.96 l -1.748,-1.385 c -0.296,0.716 -0.611,1.425 -0.917,2.109 0.016,0.022 0.032,0.044 0.047,0.066 l 1.507,2.178 c 0.662,0.979 1.299,1.968 1.941,2.954 l -0.17,0.515 c -0.967,-0.814 -1.934,-1.63 -2.913,-2.422 l -1.344,-1.065 c -0.308,0.823 -0.595,1.693 -0.854,2.588 l 4.285,5.134 -0.028,0.985 -4.907,-3.679 c -0.042,0.173 -0.091,0.357 -0.131,0.525 -0.114,0.512 -0.207,1.013 -0.285,1.507 l 5.484,6.238 0.157,1.363 -5.899,-4.474 c -0.007,0.796 0.035,1.575 0.115,2.344 l 6.377,7.255 0.157,1.36 -5.696,-4.319 c 0.01,0.035 0.018,0.07 0.028,0.106 2.355,8.263 12.517,10.287 20.307,10.743 1.28,-0.086 2.563,-0.177 3.836,-0.259 l 8.7,-0.631 0.225,-0.016 z m 19.466,-18.639 c -1.298,-0.445 -3.086,-0.712 -3.086,-0.712 0,0 -2.547,2.24 -4.613,2.56 -2.067,0.321 -10.515,1.213 -10.515,1.213 l 2.655,-2.35 c 1.138,-1.061 2.373,-1.679 3.445,-1.801 0.662,-0.076 1.437,0.079 2.094,0.156 0.738,0.122 1.444,0.097 2.194,-0.151 0.228,-0.076 0.469,-0.179 0.684,-0.305 0.173,-0.101 0.319,-0.221 0.444,-0.355 0.279,-0.298 0.491,-0.738 0.131,-1.063 -0.303,-0.274 -0.741,-0.336 -1.138,-0.301 -1.047,0.07 -3.316,0.708 -3.316,0.708 0,0 -0.296,-0.564 -0.293,-0.957 -0.096,-1.886 1.86,-2.684 3.21,-3.263 1.844,-0.79 1.761,-2.068 0.599,-3.476 -0.365,-0.443 -0.718,-0.942 -0.726,-1.509 -0.009,-0.674 0.497,-1.298 1.134,-1.633 0.499,-0.465 0.999,-0.93 1.499,-1.396 0.743,-0.691 2.763,-2.168 1.843,-3.344 -0.469,-0.598 -1.366,-0.696 -1.881,-1.115 -0.078,-0.064 -0.147,-0.146 -0.154,-0.253 -0.012,-0.205 0.191,-0.318 0.367,-0.354 0.386,-0.08 0.837,-0.118 1.374,-0.123 0.555,-0.005 1.257,-0.013 1.699,-0.367 0.377,-0.302 0.389,-0.724 0.352,-1.094 -0.053,-0.537 -0.057,-1.084 -0.034,-1.636 -0.179,-0.844 -0.142,-1.748 0.148,-2.556 0.185,-0.533 0.378,-0.926 0.539,-1.33 -0.314,-0.933 -0.771,-1.818 -1.59,-2.401 -1.001,-0.713 -2.321,-0.802 -3.58,-0.682 0.732,1.149 1.415,2.305 2.071,3.469 l -1.051,0.284 c -1.343,-1.047 -2.702,-2.053 -4.078,-2.957 -0.174,0.067 -0.349,0.133 -0.523,0.199 l 2.374,3.359 -1.016,0.275 -3.913,-2.671 c -0.254,0.094 -0.509,0.186 -0.764,0.28 l 2.311,3.03 -0.82,0.221 -3.325,-2.578 c -0.291,0.105 -0.585,0.204 -0.877,0.308 l 1.973,2.872 -0.835,0.226 -3.559,-2.249 c -0.039,0.014 -0.078,0.028 -0.117,0.041 l -0.044,0.015 -0.047,0.01 c -2.168,0.458 -4.313,1.106 -6.219,2.128 -0.945,0.514 -1.83,1.13 -2.513,1.886 -0.689,0.751 -1.139,1.649 -1.223,2.608 l -0.005,0.051 -0.01,0.046 -1.432,6.333 -0.132,0.588 -0.598,-0.031 -4.891,-0.25 c -0.651,0.609 -1.29,1.225 -1.832,1.904 -0.68,0.806 -1.391,1.516 -1.954,2.269 -0.574,0.744 -0.969,1.529 -1.038,2.332 -0.075,0.82 0.113,1.614 0.534,2.429 0.194,0.387 0.412,0.709 0.68,0.978 0.252,0.258 0.625,0.54 0.897,0.654 0.637,0.271 1.25,0.248 1.949,-0.08 0.689,-0.331 1.38,-0.919 2.039,-1.566 0.653,-0.664 1.276,-1.404 1.936,-2.165 l 0.959,-1.103 0.046,0.07 c 1.021,-1.238 3.2,-3.91 4.688,-7.176 1.571,-3.522 6.189,-4.979 8.715,-6.534 0.475,-0.292 0.749,-0.069 0.449,0.464 -0.813,1.443 -1.374,2.842 -1.457,3.114 -0.201,0.354 -0.219,0.469 -0.219,0.469 l 6.386,8.005 c 0,0 -0.085,0.198 -1.534,0.395 l -1.874,-1.804 c -1.566,-1.507 -3.146,-3.004 -4.754,-4.463 1.317,1.727 2.594,3.478 3.858,5.24 l 0.985,1.374 c -0.551,0.132 -1.071,0.266 -1.518,0.389 l -1.798,-1.732 c -1.567,-1.507 -3.147,-3.004 -4.755,-4.463 1.317,1.727 2.594,3.478 3.859,5.24 l 1.08,1.506 c -0.203,0.15 -0.551,0.412 -0.952,0.736 l -0.372,-0.359 c -1.567,-1.507 -3.147,-3.004 -4.755,-4.463 1.317,1.727 2.594,3.478 3.858,5.24 l 0.301,0.419 c -0.274,0.256 -0.519,0.509 -0.683,0.729 -0.132,0.148 -0.305,0.299 -0.502,0.452 -1.378,-1.321 -2.762,-2.637 -4.174,-3.918 1.131,1.482 2.229,2.985 3.318,4.495 -0.552,0.33 -1.188,0.654 -1.827,0.952 -0.895,-0.845 -1.781,-1.7 -2.691,-2.526 0.706,0.926 1.4,1.86 2.088,2.799 -0.817,0.36 -1.591,0.666 -2.153,0.875 0.268,0.402 0.529,0.808 0.802,1.206 l 1.942,2.717 1.908,2.74 0.324,0.466 -0.336,0.435 -3.122,4.047 c 1.413,-0.055 2.823,-0.068 4.223,0.002 1.903,0.089 3.791,0.252 5.667,0.403 0.952,0.063 1.85,0.187 2.734,0.127 0.913,-0.034 1.827,-0.11 2.735,-0.231 1.803,-0.24 3.586,-0.663 5.278,-1.291 0.937,-0.544 1.889,-0.991 2.848,-1.441 z m 1.17,-7.195 c 0.12,-0.417 0.199,-0.837 0.221,-1.244 0.026,-0.433 0.024,-0.938 0.046,-1.404 l 0.097,-2.849 0.048,-1.425 0.02,-0.561 -0.183,0.048 -0.69,0.179 -1.381,0.359 c -1.543,0.391 -3.094,0.757 -4.652,1.095 -0.09,0.103 -0.167,0.217 -0.206,0.343 -0.114,0.373 -0.028,0.766 0.061,1.14 0.545,2.305 1.168,4.591 1.864,6.857 0.232,0.758 0.789,1.414 1.551,1.796 0.238,0.078 0.5,0.152 0.773,0.232 1.034,-1.388 1.957,-2.967 2.431,-4.566 m 43.127,-61.797 0.326,0.345 0.082,0.086 0.045,0.042 0.155,0.142 c 0.434,0.384 0.901,0.757 1.38,1.104 0.959,0.697 1.98,1.302 3.035,1.761 2.106,0.92 4.385,1.136 6.187,0.06 0.119,-0.065 0.23,-0.147 0.345,-0.221 0.976,-1.125 2.026,-2.327 2.759,-4.477 0.358,-1.737 0.439,-3.202 0.131,-4.787 -0.019,-0.098 -0.123,-0.601 -0.246,-1.207 l -0.82,-2.543 0.332,-0.022 v 0 c 0,0 0.119,-0.043 0.317,-0.113 0.481,-0.171 1.453,-0.516 2.495,-0.886 1.794,-0.637 3.785,-1.344 3.785,-1.344 v 0.668 c 0,0 -2.173,3.736 -1.748,6.52 0.498,2.707 1.186,3.45 2.429,4.689 0.189,0.189 0.313,0.35 0.399,0.492 0.324,0.213 0.656,0.411 1,0.569 1.09,0.501 2.257,0.644 3.374,0.423 1.042,-0.207 2.036,-0.713 2.957,-1.365 l 3.758,-5.884 -7.936,1.755 v 0.001 c -0.095,0.046 -0.21,0.055 -0.316,0.013 -0.2,-0.079 -0.298,-0.305 -0.219,-0.505 l 0.066,-0.169 c 1.079,-2.74 1.996,-5.53 2.23,-8.224 0.039,-0.673 0.075,-1.335 0.022,-1.98 -0.053,-0.644 -0.176,-1.265 -0.335,-1.865 -0.036,-0.128 -0.091,-0.246 -0.134,-0.37 -0.323,-0.646 -0.733,-1.243 -1.238,-1.775 -0.84,-0.884 -1.809,-1.585 -2.934,-2.334 -1.623,-0.931 -3.017,-1.804 -4.071,-2.477 -0.612,-0.454 -1.412,-1.127 -4.114,-3.872 -0.915,-0.789 -1.303,-1.176 -2.879,-1.296 -2.096,-0.208 -5.35,0.29 -7.486,0.395 -0.88,-0.004 -1.757,-0.571 -2.583,-1.027 -1.926,-1.249 -3.775,-2.801 -5.524,-4.119 -1.81,-1.364 -3.619,-2.799 -5.429,-4.241 -1.942,-1.548 -3.884,-3.096 -5.827,-4.644 l -0.383,-0.012 8.348,11.958 c 1.638,2.309 3.205,4.675 4.902,6.937 l 4.912,6.306 4.268,0.529 2.227,0.059 0.597,0.073 3.11,0.38 -0.021,0.433 -0.008,0.166 -3.049,0.661 -1.048,0.228 -1.224,0.266 -4.215,0.751 c -0.028,0.005 -0.056,0.006 -0.085,0.011 -2.288,0.388 -4.632,-0.285 -6.135,-1.55 l -16.919,-16.349 -8.798,-8.503 c 0.758,1.694 1.379,3.454 1.811,5.268 0.088,0.052 0.174,0.108 0.263,0.158 3.33,3.178 6.622,6.391 9.887,9.628 6.013,5.971 11.921,12.039 17.751,18.18 l -0.642,1.208 C 6.987,337.173 0.697,331.329 -5.686,325.595 c -2.524,-2.264 -5.066,-4.506 -7.619,-6.734 0.002,-0.224 0.009,-0.448 0.002,-0.671 -0.037,-1.2 -0.249,-2.392 -0.613,-3.539 0.346,1.633 0.548,3.296 0.605,4.972 0.011,0.327 0.038,0.653 0.038,0.98 0,0.082 -0.008,0.163 -0.008,0.245 0.055,0.039 0.118,0.062 0.168,0.112 7.129,7.193 14.134,14.502 21.128,21.823 l 5.214,5.523 0.309,0.328 z m 24.076,-45.586 3.575,0.04 0.844,0.006 c 0.155,-0.006 0.303,-0.044 0.438,-0.109 0.267,-0.138 0.469,-0.383 0.521,-0.652 0.06,-0.275 -0.016,-0.558 -0.203,-0.773 -0.091,-0.11 -0.212,-0.196 -0.344,-0.255 -0.162,-0.068 -0.2,-0.072 -0.543,-0.118 l -3.544,-0.484 -3.461,-0.461 -0.732,1.617 -0.419,-0.089 0.061,-1.673 -3.084,-0.411 c -0.018,0.045 -0.034,0.091 -0.052,0.136 -0.251,0.614 -0.522,1.214 -0.806,1.803 l -0.411,-0.121 c 0.076,-0.642 0.137,-1.284 0.172,-1.921 0.001,-0.014 0.001,-0.028 0.002,-0.043 l -2.474,-0.329 -0.097,0.244 -0.706,1.873 -0.42,-0.082 0.078,-2.013 0.01,-0.173 -1.843,-0.246 -0.422,-0.052 -1.02,2.35 -0.416,-0.104 0.274,-2.39 -2.495,-0.31 c -0.074,0.178 -0.151,0.351 -0.222,0.531 -0.299,0.757 -0.572,1.53 -0.833,2.31 l -0.421,-0.082 c 0.053,-0.826 0.118,-1.654 0.214,-2.485 0.016,-0.141 0.04,-0.283 0.058,-0.423 l -2.486,-0.309 c -0.08,0.206 -0.164,0.409 -0.24,0.619 -0.289,0.79 -0.554,1.595 -0.809,2.406 l -0.421,-0.075 c 0.044,-0.854 0.1,-1.709 0.185,-2.568 0.017,-0.177 0.043,-0.356 0.063,-0.534 l -2.566,-0.318 -1.27,3.234 -0.412,-0.116 0.387,-3.279 -1.35,-0.167 c -0.311,-0.037 -0.621,-0.073 -0.932,-0.109 l -1.128,3.214 -0.42,-0.081 0.306,-3.279 c -0.661,-0.077 -1.321,-0.154 -1.982,-0.231 -0.138,0.269 -0.277,0.537 -0.41,0.812 -0.375,0.773 -0.729,1.561 -1.073,2.356 l -0.411,-0.12 c 0.139,-0.859 0.291,-1.719 0.469,-2.579 0.043,-0.206 0.093,-0.413 0.139,-0.619 -0.634,-0.074 -1.268,-0.149 -1.902,-0.221 -0.179,0.264 -0.358,0.529 -0.529,0.801 -0.478,0.76 -0.927,1.545 -1.36,2.343 l -0.399,-0.158 c 0.237,-0.884 0.495,-1.765 0.79,-2.642 0.055,-0.163 0.12,-0.326 0.177,-0.489 -0.773,-0.088 -1.547,-0.171 -2.32,-0.255 -0.197,0.266 -0.393,0.532 -0.582,0.807 -0.518,0.755 -1.008,1.538 -1.48,2.335 l -0.392,-0.174 c 0.28,-0.891 0.582,-1.779 0.924,-2.659 0.059,-0.153 0.128,-0.304 0.189,-0.457 -0.634,-0.068 -1.267,-0.143 -1.901,-0.209 l -0.183,-0.019 c -0.189,0.258 -0.379,0.514 -0.561,0.78 -0.518,0.755 -1.008,1.538 -1.48,2.334 l -0.392,-0.173 c 0.28,-0.891 0.582,-1.779 0.924,-2.659 0.119,-0.308 0.251,-0.614 0.382,-0.921 l -1.441,-1.035 c -0.169,0.232 -0.341,0.462 -0.505,0.702 -0.518,0.755 -1.008,1.538 -1.48,2.334 l -0.392,-0.173 c 0.28,-0.891 0.582,-1.779 0.924,-2.66 0.125,-0.321 0.262,-0.641 0.399,-0.961 l -1.432,-1.03 c -0.179,0.244 -0.359,0.486 -0.531,0.737 -0.518,0.756 -1.008,1.539 -1.48,2.335 l -0.392,-0.173 c 0.28,-0.892 0.582,-1.78 0.924,-2.66 0.13,-0.335 0.272,-0.669 0.416,-1.003 l -1.424,-1.023 c -0.187,0.255 -0.375,0.509 -0.556,0.772 -0.518,0.756 -1.008,1.538 -1.48,2.335 l -0.392,-0.174 c 0.28,-0.891 0.582,-1.779 0.924,-2.659 0.136,-0.349 0.283,-0.697 0.433,-1.044 l -1.415,-1.018 c -0.197,0.267 -0.393,0.533 -0.582,0.808 -0.518,0.755 -1.008,1.538 -1.48,2.335 l -0.392,-0.174 c 0.28,-0.891 0.582,-1.779 0.924,-2.659 0.141,-0.363 0.294,-0.724 0.45,-1.086 l -1.407,-1.011 c -0.205,0.277 -0.41,0.556 -0.607,0.843 -0.518,0.755 -1.008,1.538 -1.48,2.335 l -0.392,-0.174 c 0.28,-0.891 0.582,-1.779 0.924,-2.659 0.146,-0.377 0.304,-0.752 0.467,-1.127 l -4.049,-2.911 c 0.178,1.034 0.357,2.068 0.525,3.104 0.485,2.923 0.964,5.846 1.398,8.778 0.363,2.387 0.728,4.773 1.065,7.164 9.369,0.321 18.739,0.557 28.111,0.714 9.533,0.216 19.068,0.261 28.602,0.386 M -6.1,305.714 c -0.144,-0.206 -0.226,-0.459 -0.218,-0.73 10e-4,-0.032 0.018,-0.059 0.021,-0.09 -3.069,-0.017 -6.138,-0.019 -9.208,-0.019 l 19.315,18.007 6.688,6.235 -1.928,-2.475 c -0.261,-0.348 -0.504,-0.708 -0.76,-1.06 -1.413,-1.948 -2.765,-3.936 -4.156,-5.898 z m 19.464,8.326 c 0.665,0.151 1.324,0.292 1.982,0.431 l -0.759,-9.398 c -1.754,-0.02 -3.508,-0.041 -5.262,-0.051 -2.246,-0.023 -4.491,-0.039 -6.736,-0.059 z m 6.27,1.279 c 0.09,0.003 0.188,0.004 0.276,0.008 0.958,0.046 1.824,0.135 2.635,0.273 l 8.185,-10.271 c -3.943,-0.071 -7.886,-0.141 -11.83,-0.2 z m 45.064,-141.98 0.029,-0.027 c 0,0 -0.069,-0.021 -0.193,-0.058 0.056,0.027 0.109,0.058 0.164,0.085 m 5.366,3.794 c -1.171,1.852 -2.572,3.349 -4.012,4.769 -1.363,1.323 -2.788,2.542 -4.24,3.713 -0.005,0.006 -0.009,0.012 -0.014,0.018 0,0 -0.019,0.011 -0.023,0.013 -0.08,0.065 -0.158,0.134 -0.239,0.199 -1.552,1.235 -3.137,2.414 -4.75,3.549 -1.619,1.137 -3.235,2.224 -4.94,3.287 l -0.091,0.057 -0.099,0.044 c -7.268,3.242 -14.563,6.361 -21.926,9.367 -7.373,2.988 -14.761,5.89 -22.406,8.362 -6.359,1.926 -12.711,3.793 -19.088,5.604 -0.077,0.022 -0.153,0.044 -0.229,0.066 -1.186,0.337 -2.367,0.687 -3.556,1.018 -6.043,1.683 -12.11,3.289 -18.211,4.779 l 0.882,4.211 c 0.02,0.062 0.041,0.125 0.06,0.188 0.69,2.155 1.309,4.33 1.917,6.508 1.204,4.36 2.292,8.741 3.281,13.166 l 0.007,0.032 0.008,0.061 0.779,5.723 0.747,5.727 c 0.407,3.348 0.837,6.692 1.23,10.042 0.146,0.902 0.304,1.831 0.473,2.805 l 1.549,7.188 c 0.141,0.64 0.254,1.285 0.383,1.927 l 19.592,12.242 c 4.533,0.852 9.074,1.649 13.616,2.443 l 14.102,2.378 14.121,2.252 3.532,0.551 c 0.246,0.031 0.805,0.12 1.18,0.322 0.406,0.195 0.772,0.477 1.058,0.831 0.585,0.696 0.82,1.69 0.608,2.579 -0.197,0.905 -0.838,1.661 -1.635,2.052 -0.401,0.195 -0.844,0.303 -1.285,0.317 -0.397,0.005 -0.623,-0.008 -0.943,-0.01 l -3.575,-0.062 c -0.626,-0.01 -1.252,-0.022 -1.878,-0.032 l -9.265,11.352 c 0.072,0.024 0.145,0.047 0.207,0.095 l 0.049,0.038 c 2.143,1.647 4.322,3.249 6.478,4.88 2.145,1.645 4.331,3.239 6.436,4.932 l 0.063,0.055 0.037,0.035 c 1.254,1.183 2.208,2.753 2.694,4.435 0.476,1.686 0.494,3.434 0.202,5.048 -0.279,1.625 -0.852,3.135 -1.574,4.533 -0.496,0.946 -1.067,1.834 -1.721,2.664 l 8.544,-2.853 c 0.241,-0.079 0.516,-0.065 0.758,0.065 0.467,0.25 0.642,0.832 0.392,1.3 l -0.049,0.09 v 0 l -4.778,8.335 c -0.083,0.142 -0.201,0.272 -0.347,0.369 l -0.011,0.007 h -0.001 c -1.252,0.766 -2.683,1.379 -4.233,1.542 -1.55,0.169 -3.151,-0.202 -4.443,-0.953 -1.301,-0.749 -2.341,-1.782 -3.2,-2.897 -0.323,-0.426 -0.615,-0.864 -0.892,-1.311 -0.173,-0.047 -0.343,-0.044 -0.507,0.028 -0.016,0.151 -0.033,0.301 -0.048,0.451 l -0.002,0.011 -0.032,0.109 c -0.372,1.262 -0.857,2.514 -1.562,3.698 -0.699,1.18 -1.661,2.295 -2.921,3.096 -1.254,0.805 -2.791,1.232 -4.265,1.182 -1.481,-0.011 -2.868,-0.41 -4.148,-0.927 -1.277,-0.534 -2.456,-1.216 -3.557,-1.992 -0.552,-0.389 -1.081,-0.798 -1.602,-1.247 l -0.199,-0.176 -0.128,-0.119 -0.083,-0.086 -0.331,-0.341 -0.662,-0.682 -5.297,-5.456 c -6.555,-6.832 -13.091,-13.683 -19.534,-20.621 -0.214,1.821 -0.586,3.627 -1.16,5.366 -0.938,2.906 -2.451,5.514 -4.003,8.021 -3.166,4.998 -6.765,9.65 -10.583,14.098 -3.476,4.011 -7.101,7.881 -10.94,11.544 l 0.486,-0.075 -1.151,21.747 c 1.706,0.184 4.116,0.143 6.201,0.577 0.161,-0.01 0.324,-0.014 0.489,-0.007 0.721,0.03 1.428,0.245 2.029,0.552 0.303,0.152 0.589,0.322 0.854,0.499 0.299,0.204 0.599,0.456 0.848,0.767 0.501,0.639 0.687,1.485 0.64,2.202 -0.085,1.43 -0.846,2.623 -1.261,3.565 -0.394,0.955 -0.359,2.016 0.128,2.963 l 0.03,0.058 0.017,0.062 c 0.138,0.479 0.391,1.141 0.436,1.795 0.063,0.661 -0.021,1.3 -0.109,1.886 -0.157,0.983 -0.342,1.944 -0.4,2.87 l 0.899,-0.28 0.682,-0.213 0.34,-0.106 c 0.026,-0.009 0.188,-0.058 0.318,-0.063 0.135,-0.008 0.273,0.005 0.406,0.044 0.266,0.077 0.505,0.254 0.656,0.497 0.076,0.119 0.127,0.256 0.155,0.394 0.03,0.144 0.02,0.29 0.021,0.319 l -0.011,0.714 -0.021,1.427 -0.043,2.855 c -0.009,0.485 -0.01,0.931 -0.042,1.447 -0.031,0.543 -0.136,1.062 -0.28,1.558 -0.533,1.8 -1.481,3.31 -2.579,4.732 l 1.287,1.442 0.268,0.3 -0.141,0.376 -3.052,8.116 c 1.76,2.143 2.08,4.981 1.396,7.468 -0.715,2.576 -2.337,4.941 -4.661,6.506 -1.151,0.792 -2.496,1.352 -3.92,1.586 -1.422,0.236 -2.88,0.147 -4.216,-0.178 -1.334,-0.348 -2.56,-0.858 -3.725,-1.408 -1.114,-0.496 -2.181,-1.021 -3.26,-1.458 l -8.477,0.337 c -2.922,0.117 -5.799,0.281 -8.753,0.347 -2.941,0.042 -5.949,-0.084 -8.871,-0.842 -2.909,-0.743 -5.682,-2.067 -8.033,-3.955 l 0.057,0.041 c -1.493,-0.938 -2.782,-2.231 -3.687,-3.749 -0.913,-1.517 -1.45,-3.209 -1.789,-4.909 -0.671,-3.423 -0.33,-6.944 0.39,-10.261 0.364,-1.758 1.028,-3.37 1.73,-4.927 0.709,-1.559 1.496,-3.065 2.318,-4.547 1.201,-2.153 2.487,-4.239 3.817,-6.306 0.007,-0.053 0.021,-0.105 0.026,-0.158 0.067,-1.537 -0.707,-3.083 -1.293,-4.655 -0.542,-1.454 -0.843,-2.922 -0.774,-4.319 0.077,-1.581 0.666,-3.171 1.986,-4.346 1.41,-1.195 3.484,-1.86 5.337,-2.031 0.483,-0.045 0.94,-0.043 1.336,0.036 -0.331,-1.591 -1.706,-7.264 -2.438,-9.444 -0.08,0.012 -0.158,0.031 -0.239,0.042 -4.021,0.599 -8.208,0.713 -12.269,-0.149 -0.096,-0.016 -0.194,-0.027 -0.289,-0.044 -0.005,0.002 -0.011,0.003 -0.017,0.005 l -0.002,-0.009 c -0.681,-0.122 -1.343,-0.278 -1.981,-0.471 -1.899,-0.434 -3.802,-1.347 -5.636,-2.529 -0.068,-0.042 -0.14,-0.077 -0.208,-0.119 -0.004,0.002 -0.009,0.003 -0.013,0.005 l -0.004,-0.014 c -1.195,-0.745 -2.302,-1.613 -3.337,-2.547 -4.501,-3.839 -8.169,-8.627 -9.628,-10.642 -2.346,-0.514 -4.659,-1.185 -6.931,-1.976 -2.81,-0.973 -5.57,-2.102 -8.258,-3.385 -5.387,-2.55 -10.455,-5.771 -15.119,-9.481 -1.19,-0.955 -2.24,-1.833 -3.433,-2.61 -1.182,-0.781 -2.42,-1.497 -3.694,-2.175 -1.269,-0.673 -2.599,-1.32 -3.894,-1.95 -1.341,-0.613 -2.692,-1.287 -4.006,-1.993 -5.205,-2.803 -10.016,-6.178 -14.701,-9.637 -0.881,-0.369 -1.435,-1.19 -1.492,-2.083 l -0.025,-0.005 c 0.006,-0.027 0.013,-0.052 0.019,-0.079 -0.009,-0.296 0.036,-0.599 0.145,-0.894 l 0.146,-0.355 c 1.032,-4.316 2.588,-8.437 4.339,-12.471 0.366,-0.841 0.736,-1.68 1.115,-2.515 2.415,-5.233 5.164,-10.297 8.112,-15.232 2.284,-3.707 4.472,-7.427 6.698,-11.142 l 8.206,-15.656 3.27,-6.238 2.018,-5.022 1.065,-2.539 0.565,-1.279 0.103,-0.219 -3.286,-5.161 -0.147,0.104 c -5.049,3.461 -11.878,2.788 -15.882,-1.563 l -1.486,-1.615 c -0.35,-0.38 -0.517,-0.893 -0.458,-1.407 0.059,-0.514 0.338,-0.976 0.766,-1.269 l 9.59,-6.526 -51.477,-74.016 -56.1,-80.6 -0.252,-0.362 -0.022,-0.454 -0.71,-14.694 -0.162,-3.675 -0.081,-1.837 -0.018,-0.459 -0.009,-0.23 v -0.246 c 0.005,-0.112 0.009,-0.219 0.033,-0.334 0.155,-0.946 0.841,-1.66 1.61,-1.953 0.392,-0.153 0.845,-0.219 1.328,-0.141 0.481,0.074 0.981,0.332 1.325,0.692 0.082,0.088 0.16,0.181 0.233,0.276 l 0.072,0.102 0.134,0.189 0.267,0.377 1.069,1.51 2.136,3.018 17.085,24.155 34.153,48.307 c 5.71,8.046 11.329,16.108 17.105,24.141 l 17.426,24.119 c 9.988,14.057 19.847,28.133 29.503,42.147 l 9.032,-6.147 c 0.3,-0.204 0.647,-0.31 0.999,-0.31 0.177,0 0.356,0.027 0.531,0.082 0.521,0.162 0.933,0.546 1.13,1.054 l 0.807,2.076 c 2.049,5.208 0.383,11.069 -4.027,14.463 l 3.267,3.719 8.596,3.477 5.671,3.709 4.028,6.003 -0.309,0.999 0.054,0.111 -0.25,0.459 c -1.402,2.577 -3.057,4.978 -4.782,7.331 -0.7,0.938 -1.415,1.865 -2.146,2.782 l 3.152,-1.365 c 0.263,-0.524 0.536,-1 0.846,-1.472 0.387,-0.587 0.816,-1.145 1.28,-1.671 0.917,-1.062 2.009,-1.977 3.209,-2.709 h 10e-4 l 0.328,-0.213 0.371,0.175 c 0.514,0.243 1.038,0.471 1.569,0.752 0.263,0.144 0.537,0.29 0.818,0.491 0.141,0.103 0.283,0.21 0.44,0.38 0.079,0.088 0.159,0.177 0.246,0.333 0.039,0.064 0.087,0.176 0.122,0.29 0.019,0.082 0.034,0.133 0.042,0.242 -0.01,0.132 0.048,0.139 -0.087,0.521 l -0.045,0.086 c -0.082,0.192 -0.035,0.46 -0.132,0.644 l -0.31,0.54 -0.278,0.476 -4.357,8.629 -11.794,6.55 h -9.383 c -0.572,1.07 -1.12,2.178 -1.655,3.289 -0.853,1.783 -1.668,3.601 -2.458,5.432 -1.578,3.645 -3.078,7.351 -4.509,11.062 -0.737,4.297 -1.627,8.548 -2.619,12.77 -0.505,2.144 -1.031,4.283 -1.581,6.413 1.722,0.414 3.46,0.815 5.182,1.281 1.733,0.449 3.442,0.987 5.152,1.52 1.704,0.553 3.383,1.182 5.036,1.872 l 2.477,1.036 2.489,1.006 0.019,0.008 0.043,0.022 c 3.117,1.606 6.187,3.319 9.185,5.163 0.792,0.494 1.578,0.999 2.359,1.513 0.949,0.535 1.892,1.075 2.832,1.619 l -0.045,0.07 c 0.916,0.49 1.82,0.989 2.715,1.496 l 13.653,-30.661 0.831,-25.35 c 0.065,-5.227 0.182,-9.929 0.472,-14.419 l 0.208,-6.357 -11.84,-13.646 -6.5,-7.492 c -0.532,-0.647 -1.103,-1.194 -1.678,-1.812 -0.58,-0.618 -1.149,-1.247 -1.704,-1.889 -1.112,-1.284 -2.174,-2.617 -3.173,-4.004 -3.989,-5.51 -6.995,-12.056 -7.609,-19.129 -0.155,-1.757 -0.157,-3.532 -0.016,-5.296 0.068,-0.868 0.178,-1.792 0.316,-2.603 0.153,-0.834 0.212,-1.604 0.375,-2.507 0.494,-2.95 1.508,-6.012 3.211,-8.69 -4.556,-5.375 -8.98,-10.875 -13.119,-16.605 -4.518,-6.224 -8.629,-12.778 -12.294,-19.535 -1.835,-3.365 -3.609,-6.787 -5.338,-10.171 l -5.336,-10.116 -10.621,-19.716 c -5.671,-2.526 -11.27,-5.151 -16.818,-7.947 -2.848,-1.442 -5.676,-2.932 -8.463,-4.547 l -2.073,-1.241 c -0.663,-0.402 -1.366,-0.824 -2.061,-1.281 -1.393,-0.904 -2.799,-2.025 -3.921,-3.434 l -0.04,-0.05 -0.036,-0.054 c -2.07,-3.104 -3.705,-6.496 -4.903,-10.006 -1.16,-3.382 -1.931,-6.859 -2.498,-10.336 -6.022,-7.451 -11.574,-15.232 -17.096,-22.981 -2.803,-3.929 -5.6,-7.846 -8.467,-11.714 -2.681,-3.716 -5.475,-7.194 -8.748,-10.22 -1.43,0.225 -2.896,0.516 -4.396,0.783 -1.734,0.294 -3.506,0.572 -5.374,0.654 -1.857,0.049 -3.874,0.022 -5.961,-0.966 -1.026,-0.495 -2.018,-1.303 -2.695,-2.314 -0.638,-0.947 -0.988,-1.99 -1.172,-2.988 -0.533,-1.638 -0.771,-3.4 -0.706,-5.102 0.059,-1.744 0.397,-3.405 0.794,-4.952 0.807,-3.085 1.805,-5.856 1.702,-8.32 l -0.006,-0.127 0.024,-0.206 c 0.655,-5.658 -0.198,-11.512 -1.074,-17.541 l -0.011,-0.076 -0.006,-0.089 c -0.198,-2.981 0.207,-5.926 0.933,-8.664 0.718,-2.749 1.712,-5.329 2.714,-7.822 l 1.483,-3.665 0.394,-0.993 c 0.178,-0.426 0.415,-0.868 0.675,-1.26 0.526,-0.793 1.165,-1.463 1.833,-2.011 0.671,-0.546 1.369,-0.985 2.066,-1.357 0.358,-0.188 0.679,-0.346 1.065,-0.517 l 0.304,-0.132 c 0.083,-0.04 0.34,-0.119 0.505,-0.165 0.345,-0.089 0.614,-0.131 0.896,-0.156 1.103,-0.081 2.099,0.041 3.219,0.563 0.546,0.262 1.155,0.688 1.643,1.345 0.496,0.651 0.776,1.536 0.784,2.309 l 0.001,0.116 -0.003,0.053 c -0.148,2.211 -0.248,4.392 -0.292,6.547 -0.042,2.156 0.048,4.285 0.262,6.387 0.396,2.075 0.788,4.157 1.144,6.253 0.357,2.049 0.71,4.106 0.989,6.178 0.196,0.262 0.389,0.525 0.585,0.787 0.044,-0.015 0.083,-0.033 0.127,-0.047 l 0.027,0.255 c 2.523,3.378 5.017,6.769 7.518,10.146 0.002,0 0.003,-0.001 0.005,-0.001 l 0.002,0.011 c 3.236,4.372 6.492,8.717 9.867,12.955 1.575,1.987 3.183,3.944 4.819,5.876 0.817,0.966 1.645,1.924 2.484,2.875 0.84,0.97 1.63,1.835 2.532,2.695 3.543,3.425 7.774,6.378 11.549,9.965 7.433,6.97 14.964,13.882 22.275,21.013 7.287,7.063 14.511,14.179 21.71,21.329 l 19.712,12.281 0.275,0.171 0.185,0.278 7.433,11.146 c 12.662,9.445 24.491,20.091 34.892,32.027 2.606,2.991 5.178,6.053 7.587,9.231 2.416,3.17 4.715,6.414 6.956,9.687 4.277,6.225 8.304,12.595 12.627,18.668 7.968,-1.031 15.633,-3.634 23.348,-6.283 l 6.135,-2.159 c 2.104,-0.683 4.22,-1.39 6.37,-1.959 4.295,-1.152 8.66,-2.095 13.069,-2.68 8.81,-1.237 17.707,-1.466 26.482,-0.867 1.393,0.077 2.781,0.188 4.169,0.313 -2.801,-3.222 -5.502,-6.501 -8.197,-9.789 l -4.942,-6.12 -2.445,-3.079 c -0.819,-1.034 -1.66,-2.148 -2.388,-3.291 -2.976,-4.573 -4.953,-9.814 -5.692,-15.247 l -1.618,-15.401 -4.134,-9.8 c -1.392,-3.353 -2.82,-6.692 -4.184,-10.057 -1.384,-3.353 -2.704,-6.748 -3.956,-10.187 l -0.467,-1.299 c -0.091,-0.255 -0.122,-0.342 -0.2,-0.531 -0.075,-0.175 -0.155,-0.356 -0.248,-0.549 -0.361,-0.761 -0.775,-1.559 -1.202,-2.348 l -1.295,-2.403 c -0.436,-0.842 -0.856,-1.572 -1.294,-2.674 l 0.052,0.127 c -0.43,-0.903 -1.123,-1.966 -1.785,-2.926 l -0.527,-0.735 c -0.012,-0.016 -0.016,-0.022 -0.023,-0.031 0,0 0.005,0.005 -0.004,-0.002 l -0.3,-0.243 -1.463,-1.184 c -1.974,-1.621 -3.804,-3.083 -5.84,-4.305 -0.503,-0.306 -1.012,-0.597 -1.527,-0.869 -0.416,-0.232 -1.077,-0.506 -1.659,-0.814 -1.196,-0.616 -2.356,-1.346 -3.475,-2.184 -2.229,-1.664 -4.151,-4.123 -5.005,-7.009 l -0.137,-0.462 0.097,-0.53 c 0.251,-1.371 0.737,-2.746 1.452,-3.968 0.708,-1.228 1.609,-2.296 2.552,-3.213 1.901,-1.834 3.924,-3.157 5.678,-4.502 l 0.186,-0.143 0.234,-0.113 c 2.149,-1.031 4.024,-2.428 5.713,-4.242 1.636,-1.723 3.153,-3.797 4.948,-5.832 0.628,-1.422 1.318,-2.739 2.014,-4.048 0.755,-1.422 1.547,-2.805 2.342,-4.183 1.598,-2.756 3.097,-5.53 4.762,-8.264 l 0.127,-0.208 0.292,-0.283 c 1.031,-0.997 2.045,-1.879 3.129,-2.749 1.08,-0.861 2.196,-1.683 3.364,-2.458 1.167,-0.777 2.363,-1.536 3.674,-2.202 1.331,-0.65 2.674,-1.302 4.554,-1.583 l 0.249,-0.037 0.226,0.014 c 0.592,0.036 1.288,0.237 1.87,0.627 0.587,0.387 1.003,0.914 1.267,1.404 0.508,0.992 0.577,1.846 0.575,2.619 C 4.578,-0.631 4.446,0.082 4.215,0.787 4.099,1.138 3.952,1.492 3.77,1.837 L 3.375,2.558 C 2.392,4.33 1.433,6.206 0.566,8.072 c -1.75,3.745 -3.242,7.626 -4.129,11.643 -0.463,2.003 -0.772,4.034 -0.924,6.071 -0.083,1.021 -0.103,2.022 -0.129,3.111 l -0.096,3.162 c -0.075,4.181 0.104,8.284 0.941,12.293 0.398,2.004 0.946,3.975 1.549,5.929 0.599,1.974 1.33,3.803 2.214,5.644 1.746,3.665 3.925,7.185 6.155,10.749 1.116,1.782 2.252,3.573 3.362,5.403 1.079,1.807 2.176,3.53 3.341,5.276 l 7.075,10.472 c 9.635,13.817 19.096,27.891 28.04,42.229 4.49,7.166 8.861,14.398 13.148,21.691 0.532,0.883 1.087,1.874 1.59,2.863 0.492,0.985 0.943,1.975 1.373,2.968 0.847,1.987 1.61,3.99 2.332,6.001 1.428,4.03 2.695,8.069 3.852,12.191 l 0.205,0.731 z"></path>
        </g>
        <g transform="translate(160.1998,392.6418)" id="g24">
          <path id="path26" style="fill:#1a3750;fill-opacity:1;fill-rule:nonzero;stroke:none" d="M 0,0 C 1.35,-0.257 2.703,-0.494 4.077,-0.633 5.448,-0.783 6.831,-0.875 8.248,-0.8 6.972,-0.18 5.663,0.275 4.342,0.672 3.023,1.079 1.684,1.388 0.341,1.678 -1.008,1.937 -2.362,2.175 -3.735,2.314 -5.107,2.465 -6.49,2.555 -7.907,2.479 -6.632,1.856 -5.323,1.4 -4.001,1.004 -2.682,0.597 -1.343,0.288 0,0"></path>
        </g>
        <g transform="translate(166.4051,395.4179)" id="g28">
          <path id="path30" style="fill:#1a3750;fill-opacity:1;fill-rule:nonzero;stroke:none" d="m 0,0 c 2.385,-0.493 4.773,-0.965 7.183,-1.339 2.408,-0.385 4.828,-0.71 7.284,-0.869 -2.307,0.856 -4.65,1.546 -7.005,2.177 C 5.109,0.61 2.735,1.153 0.357,1.675 -2.028,2.166 -4.417,2.638 -6.827,3.012 -9.234,3.396 -11.654,3.722 -14.11,3.883 -11.802,3.029 -9.46,2.34 -7.104,1.709 -4.752,1.068 -2.378,0.524 0,0"></path>
        </g>
        <g transform="translate(169.0931,399.438)" id="g32">
          <path id="path34" style="fill:#1a3750;fill-opacity:1;fill-rule:nonzero;stroke:none" d="M 0,0 C 2.341,-0.521 4.687,-1.021 7.055,-1.423 9.421,-1.836 11.801,-2.19 14.218,-2.377 11.96,-1.494 9.664,-0.777 7.354,-0.12 5.046,0.549 2.717,1.12 0.382,1.669 -1.959,2.188 -4.305,2.688 -6.674,3.09 -9.039,3.503 -11.419,3.857 -13.836,4.047 -11.577,3.166 -9.281,2.45 -6.971,1.792 -4.664,1.123 -2.334,0.552 0,0"></path>
        </g>
        <g transform="translate(172.2801,403.0427)" id="g36">
          <path id="path38" style="fill:#1a3750;fill-opacity:1;fill-rule:nonzero;stroke:none" d="m 0,0 c 2.089,-0.452 4.182,-0.883 6.298,-1.217 2.113,-0.344 4.239,-0.629 6.403,-0.748 -2.008,0.815 -4.053,1.464 -6.111,2.053 -2.056,0.6 -4.134,1.102 -6.216,1.583 -2.089,0.45 -4.183,0.882 -6.298,1.215 -2.113,0.344 -4.239,0.629 -6.402,0.75 2.008,-0.813 4.053,-1.46 6.111,-2.05 C -4.159,0.986 -2.082,0.483 0,0"></path>
        </g>
        <g transform="translate(203.7832,326.4182)" id="g40">
          <path id="path42" style="fill:#1a3750;fill-opacity:1;fill-rule:nonzero;stroke:none" d="M 0,0 C 0.803,-0.193 1.618,-0.338 2.453,-0.4 3.286,-0.472 4.133,-0.485 5.02,-0.332 4.301,0.208 3.541,0.584 2.768,0.9 1.997,1.226 1.206,1.47 0.403,1.665 -0.401,1.856 -1.216,2.001 -2.052,2.063 -2.884,2.134 -3.731,2.148 -4.617,1.998 -3.898,1.459 -3.138,1.084 -2.365,0.768 -1.594,0.441 -0.802,0.197 0,0"></path>
        </g>
        <g transform="translate(207.0813,283.0028)" id="g44">
          <path id="path46" style="fill:#1a3750;fill-opacity:1;fill-rule:nonzero;stroke:none" d="m 0,0 c -0.657,0.129 -1.324,0.212 -2.008,0.211 -0.682,0.009 -1.376,-0.04 -2.103,-0.255 0.587,-0.48 1.207,-0.794 1.839,-1.051 0.63,-0.266 1.277,-0.448 1.933,-0.584 0.657,-0.132 1.324,-0.214 2.008,-0.214 0.681,-0.01 1.375,0.04 2.102,0.257 C 3.185,-1.153 2.565,-0.838 1.933,-0.582 1.303,-0.317 0.657,-0.134 0,0"></path>
        </g>
        <g transform="translate(208.2345,276.3983)" id="g48">
          <path id="path50" style="fill:#1a3750;fill-opacity:1;fill-rule:nonzero;stroke:none" d="M 0,0 C 0.431,0.034 0.875,0.127 1.356,0.387 1.028,0.824 0.664,1.095 0.286,1.306 -0.089,1.528 -0.482,1.666 -0.886,1.756 -1.291,1.841 -1.706,1.88 -2.14,1.836 -2.571,1.801 -3.015,1.709 -3.495,1.451 -3.167,1.016 -2.802,0.746 -2.425,0.534 -2.05,0.312 -1.657,0.174 -1.253,0.082 -0.849,-0.005 -0.433,-0.044 0,0"></path>
        </g>
        <g transform="translate(209.4767,272.9431)" id="g52">
          <path id="path54" style="fill:#1a3750;fill-opacity:1;fill-rule:nonzero;stroke:none" d="M 0,0 C -0.272,0.215 -0.567,0.348 -0.875,0.433 -1.183,0.513 -1.505,0.548 -1.848,0.5 -2.189,0.463 -2.546,0.368 -2.947,0.109 c 0.215,-0.426 0.474,-0.689 0.749,-0.894 0.272,-0.215 0.566,-0.348 0.874,-0.435 0.308,-0.083 0.629,-0.118 0.973,-0.07 0.341,0.037 0.698,0.133 1.099,0.393 C 0.534,-0.469 0.275,-0.205 0,0"></path>
        </g>
        <g transform="translate(250.799,240.9115)" id="g56">
          <path id="path58" style="fill:#1a3750;fill-opacity:1;fill-rule:nonzero;stroke:none" d="M 0,0 C 1.37,0.364 2.731,0.791 4.069,1.344 V 1.703 C 2.602,1.793 1.158,1.753 -0.277,1.649 -1.952,1.539 -3.611,1.326 -5.259,1.051 -6.906,0.77 -8.543,0.431 -10.162,-0.014 c -1.622,-0.432 -3.231,-0.937 -4.805,-1.65 1.721,-0.161 3.407,-0.113 5.08,0.008 1.676,0.108 3.335,0.322 4.983,0.595 C -3.257,-0.784 -1.62,-0.444 0,0"></path>
        </g>
        <g transform="translate(244.6611,244.5082)" id="g60">
          <path id="path62" style="fill:#1a3750;fill-opacity:1;fill-rule:nonzero;stroke:none" d="M 0,0 C 1.575,0.442 3.137,0.959 4.661,1.686 2.979,1.837 1.335,1.779 -0.295,1.645 -1.928,1.525 -3.542,1.3 -5.145,1.014 -6.747,0.722 -8.339,0.372 -9.911,-0.083 c -1.575,-0.443 -3.137,-0.959 -4.662,-1.683 1.681,-0.148 3.325,-0.089 4.956,0.044 1.633,0.119 3.247,0.344 4.85,0.628 C -3.164,-0.805 -1.573,-0.455 0,0"></path>
        </g>
        <g transform="translate(237.2611,247.9815)" id="g64">
          <path id="path66" style="fill:#1a3750;fill-opacity:1;fill-rule:nonzero;stroke:none" d="M 0,0 C 1.525,0.502 3.034,1.079 4.496,1.863 2.839,1.949 1.229,1.827 -0.365,1.631 -1.962,1.448 -3.536,1.161 -5.095,0.813 -6.654,0.459 -8.2,0.048 -9.722,-0.467 c -1.525,-0.503 -3.034,-1.079 -4.497,-1.861 1.657,-0.083 3.267,0.04 4.861,0.236 1.597,0.182 3.17,0.47 4.731,0.815 C -3.068,-0.927 -1.523,-0.515 0,0"></path>
        </g>
        <g transform="translate(230.2873,251.4164)" id="g68">
          <path id="path70" style="fill:#1a3750;fill-opacity:1;fill-rule:nonzero;stroke:none" d="M 0,0 C 1.342,0.47 2.67,1 3.955,1.694 2.494,1.691 1.075,1.523 -0.329,1.296 -1.736,1.079 -3.118,0.766 -4.495,0.432 c -1.37,-0.365 -2.734,-0.75 -4.074,-1.231 -1.342,-0.471 -2.67,-0.999 -3.956,-1.692 1.461,0.005 2.88,0.174 4.284,0.401 1.407,0.216 2.79,0.53 4.167,0.862 C -2.704,-0.865 -1.34,-0.481 0,0"></path>
        </g>
        <g transform="translate(222.3892,253.7307)" id="g72">
          <path id="path74" style="fill:#1a3750;fill-opacity:1;fill-rule:nonzero;stroke:none" d="M 0,0 C 1.228,0.343 2.445,0.745 3.633,1.315 2.322,1.448 1.04,1.413 -0.231,1.317 -1.504,1.233 -2.759,1.05 -4.011,0.845 -5.258,0.61 -6.501,0.355 -7.727,0.001 c -1.227,-0.343 -2.444,-0.744 -3.633,-1.313 1.311,-0.13 2.592,-0.094 3.863,0.001 1.273,0.084 2.529,0.267 3.781,0.469 C -2.469,-0.608 -1.226,-0.353 0,0"></path>
        </g>
        <g transform="translate(211.194,255.5102)" id="g76">
          <path id="path78" style="fill:#1a3750;fill-opacity:1;fill-rule:nonzero;stroke:none" d="M 0,0 C 0.596,0.026 1.189,0.102 1.779,0.262 2.37,0.412 2.958,0.623 3.538,1.004 2.928,1.336 2.325,1.497 1.724,1.598 1.122,1.709 0.525,1.736 -0.071,1.712 -0.667,1.684 -1.26,1.608 -1.85,1.447 -2.44,1.297 -3.028,1.087 -3.609,0.708 -2.999,0.378 -2.396,0.217 -1.795,0.116 -1.194,0.005 -0.596,-0.021 0,0"></path>
        </g>
        <g transform="translate(209.2821,320.7865)" id="g80">
          <path id="path82" style="fill:#1a3750;fill-opacity:1;fill-rule:nonzero;stroke:none" d="M 0,0 C 1.007,-0.149 2.03,-0.24 3.099,-0.166 2.221,0.448 1.298,0.897 0.358,1.289 -0.579,1.69 -1.539,2.009 -2.512,2.281 -3.486,2.547 -4.473,2.769 -5.483,2.908 -6.49,3.057 -7.513,3.148 -8.582,3.077 -7.703,2.465 -6.779,2.016 -5.84,1.624 -4.903,1.222 -3.943,0.903 -2.97,0.63 -1.997,0.36 -1.01,0.139 0,0"></path>
        </g>
        <g transform="translate(203.4383,330.8527)" id="g84">
          <path id="path86" style="fill:#1a3750;fill-opacity:1;fill-rule:nonzero;stroke:none" d="M 0,0 C 0.653,-0.07 1.317,-0.095 2.013,0.003 1.45,0.423 0.855,0.719 0.248,0.972 -0.356,1.232 -0.978,1.419 -1.605,1.591 -2.869,1.892 -4.157,2.104 -5.541,1.935 -4.408,1.122 -3.177,0.69 -1.923,0.347 -1.291,0.196 -0.655,0.062 0,0"></path>
        </g>
        <g transform="translate(211.8778,317.3887)" id="g88">
          <path id="path90" style="fill:#1a3750;fill-opacity:1;fill-rule:nonzero;stroke:none" d="m 0,0 c -0.948,0.209 -1.907,0.372 -2.885,0.452 -0.975,0.09 -1.964,0.121 -2.989,-0.012 0.87,-0.559 1.777,-0.952 2.697,-1.288 0.918,-0.346 1.855,-0.608 2.802,-0.824 0.948,-0.211 1.907,-0.374 2.884,-0.454 0.976,-0.09 1.964,-0.121 2.99,0.014 -0.87,0.561 -1.777,0.956 -2.697,1.291 C 1.884,-0.476 0.948,-0.214 0,0"></path>
        </g>
        <g transform="translate(207.6379,239.3972)" id="g92">
          <path id="path94" style="fill:#1a3750;fill-opacity:1;fill-rule:nonzero;stroke:none" d="m 0,0 c -5.896,1.753 -11.778,3.573 -17.649,5.44 -9.762,3.098 -19.487,6.331 -29.204,9.601 l -0.611,-0.356 C -37.956,10.468 -28.429,6.281 -18.838,2.226 -10.74,-1.206 -2.592,-4.543 5.621,-7.748 5.669,-7.767 5.716,-7.786 5.764,-7.804 5.459,-7.419 5.146,-7.022 4.828,-6.612 3.29,-4.631 1.62,-2.38 0,0"></path>
        </g>
        <g transform="translate(203.4766,246.1076)" id="g96">
          <path id="path98" style="fill:#1a3750;fill-opacity:1;fill-rule:nonzero;stroke:none" d="m 0,0 c -0.942,1.439 -1.783,2.856 -2.558,4.253 l -31.56,8.615 -0.063,-0.02 L 0.598,-1.059 C 0.395,-0.706 0.195,-0.353 0,0"></path>
        </g>
        <g transform="translate(198.3523,255.4205)" id="g100">
          <path id="path102" style="fill:#1a3750;fill-opacity:1;fill-rule:nonzero;stroke:none" d="m 0,0 c -0.674,1.456 -1.286,2.879 -1.859,4.266 -6.817,1.441 -13.638,2.826 -20.466,4.19 l 0.038,-0.243 C -14.84,5.519 -7.403,2.791 0,0"></path>
        </g>
        <g transform="translate(222.9296,435.159)" id="g104">
          <path id="path106" style="fill:#1a3750;fill-opacity:1;fill-rule:nonzero;stroke:none" d="m 0,0 c -0.041,-0.034 -0.083,-0.067 -0.125,-0.1 l 0.039,-0.055 C -0.057,-0.103 -0.028,-0.052 0,0"></path>
        </g>
      </g>
    </g>
  </g>
</svg>
