<?xml version="1.0" encoding="UTF-8" standalone="no"?>
<svg
   id="Ebene_2"
   data-name="Ebene 2"
   viewBox="0 -22.3175 1518.6191 603.08408"
   version="1.1"
   width="1518.6191"
   height="603.08411"
   xmlns="http://www.w3.org/2000/svg"
   xmlns:svg="http://www.w3.org/2000/svg">
  <defs
     id="defs4">
    <style
       id="style2">.cls-1{fill:#433a35}</style>
  </defs>
  <g
     id="Ebene_1-2"
     data-name="Ebene 1"
     transform="translate(542.36519,193.06942)">
    <path
       class="cls-1"
       d="m 330.25899,-197.88783 c 38.36,-17.71 82.985,-22.855 123.935,-11.375 24.605,6.72 50.82,17.71 64.82,40.285 -7.7,9.415 -16.8,17.605 -26.985,24.255 -12.845,-9.59 -25.235,-20.475 -40.67,-25.76 -32.795,-11.83 -70.525,-9.415 -101.71,6.055 -15.75,7.84 -31.22,22.085 -31.71,40.88 -1.295,20.93 13.16,38.745004 29.505,50.015004 34.685,23.87 76.545,35.735 109.34,62.58 18.62,15.0500003 32.095,38.01 30.905,62.51 1.19,29.89 -15.785,58.099996 -39.795,74.969996 -32.725,23.205 -74.235,30.45 -113.61,28.595 -40.88,-1.96 -82.355,-15.085 -113.435,-42.385 -4.025,-4.06 -9.905,-8.4 -8.435,-14.944996 6.195,-9.31 14.805,-16.66 23.205,-23.94 37.065,30.239996 85.785,46.304996 133.595,41.509996 23.87,-2.66 49.21,-11.095 64.54,-30.694996 10.08,-14.035 15.96,-34.615 5.74,-50.155 -12.32,-18.445 -32.795,-28.8749997 -51.835,-38.9549997 -30.94,-16.2750003 -64.015,-30.3100003 -89.81,-54.5300003 -18.41,-17.045 -29.015,-42.875004 -24.465,-67.970004 3.99,-32.06 28.56,-57.645 56.875,-70.945 z"
       id="path6"
       style="fill:#000000;stroke-width:3.5" />
    <path
       d="m -166.00601,-82.807826 c 14.21,-22.015004 28.735,-43.855004 43.015,-65.835004 0.875,23.24 3.85,46.34 4.165,69.580004 15.015,-0.35 30.030003,-0.945 45.080003,-0.91 -13.405,10.745 -26.845003,21.42 -39.865003,32.62 5.25,16.065 10.255,32.27 14.490003,48.6500003 -16.660003,-6.09 -33.180003,-12.4600003 -49.665003,-18.9350003 -19.215,18.51500032 -37.625,37.87 -57.26,55.965 6.23,-23.485 12.845,-46.8999997 18.48,-70.525 -12.11,-16.03 -24.01,-32.165 -36.4,-47.985 19.285,-1.295 38.605,-2.52 57.96,-2.625 z"
       style="fill:#fed54d;stroke-width:3.5"
       id="path8" />
    <path
       class="cls-1"
       d="m -392.80601,-96.177826 c 39.655,-13.405004 82.53,-14.315004 123.515,-7.105004 2.03,13.090004 -2.17,29.015004 -12.845,37.170004 -31.15,-4.025 -63.56,-5.81 -93.66,4.865 -54.6,17.465 -94.885,65.6600003 -111.685,119.35 -12.355,38.99 -15.225,82.844996 0.525,121.344996 9.45,23.59 29.4,43.54 54.565,49.525 32.025,9.135 65.73,-4.235 90.895,-24.01 38.01,-30.345 65.66,-71.435 89.425,-113.364996 5.845,-9.38 10.465,-21.525 21.84,-25.41 6.685,-3.045 13.755,1.26 20.51,2.205 -2.975,41.019996 -24.01,78.469996 -28.105,119.454996 8.435,-4.2 16.17,-9.835 22.085,-17.22 24.5,-29.505 47.95,-59.85 72.135,-89.599996 8.68,-10.675 18.865,-22.295 33.495,-23.8 10.815003,-1.12 25.165003,5.985 23.905003,18.585 -2.415,26.424996 -11.55,51.729996 -15.365003,77.979996 22.750003,-31.675 45.500003,-63.384996 68.250003,-95.129996 12.005,-18.865 43.26,-17.605 54.46,1.575 -1.47,33.915 -14.91,65.764996 -21.91000001,98.699996 20.96500001,-8.925 41.02000001,-19.845 61.28500001,-30.17 -0.875,-27.405 3.535,-56.174996 19.95,-78.854996 15.995,-25.025 45.604997,-41.9649997 75.634997,-39.585 19.95,1.365 34.545,22.015 31.955,41.3 -2.345,15.015 -10.395,28.63 -20.65,39.655 -18.27,19.144996 -41.195,33.039996 -64.855,44.519996 7.035,6.44 14.945,13.405 25.165,13.02 22.575,1.68 40.95,-14.175 56.035,-28.91 l 5.355,-0.56 c 5.39,5.215 11.585,9.975 15.4,16.555 0.175,5.425 -3.325,9.8 -6.79,13.545 -19.565,20.895 -47.285,36.4 -76.65,33.985 -21.069997,-0.105 -41.824997,-9.94 -53.059997,-28.14 -27.825,15.05 -55.79,30.065 -84.84,42.595 -7.875,2.975 -19.39,5.775 -24.99,-2.485 -1.47,-9.345 0.665,-18.655 3.01,-27.65 5.32,-20.475 11.025,-40.845 16.065,-61.39 -20.755,28.35 -41.615,56.735 -64.715,83.23 -9.695,10.57 -21.175003,22.575 -36.680003,22.33 -11.025,1.19 -20.615,-9.135 -20.09,-19.88 -0.105,-22.82 8.365,-44.52 12.32,-66.78 -22.155,29.715 -45.605,58.555 -71.085,85.505 -12.88,12.985 -30.975,25.83 -50.19,21.35 -17.535,-6.755 -19.32,-27.72 -19.6,-43.855 -27.615,39.27 -68.355,72.835 -117.425,78.61 -35.98,6.335 -76.615,2.135 -104.93,-22.96 -31.045,-26.985 -42.945,-68.915 -47.075,-108.465 -1.47,-40.284996 8.4,-80.814996 25.06,-117.389996 24.115,-52.465 68.985,-96.215 124.355,-114.24 m 529.34,138.95 c -24.605,11.83 -33.845,40.04 -38.849997,64.924996 20.334997,-11.934996 44.939997,-22.714996 54.774997,-45.744996 5.145,-10.185 -4.27,-24.29 -15.925,-19.18 z m 428.365,-114.31 c 10.955,-4.515 22.995,-3.675 34.58,-3.64 -2.73,16.66 -9.135,32.41 -14.315,48.37 10.99,-0.455 21.98,-0.91 33.005,-1.05 1.4,1.925 2.835,3.885 4.305,5.81 -2.415,8.89 -4.62,17.7800003 -7.035,26.6700003 -13.335,3.92 -27.37,3.745 -41.125,4.095 -9.87,30.4849997 -19.915,60.9349997 -28.525,91.8049957 27.685,-8.994996 54.005,-21.594996 80.885,-32.724996 9.24,-38.325 31.43,-75.3899997 66.675,-94.885 18.41,-9.975 42,-15.855 61.53,-5.53 14.35,6.51 17.955,23.4850003 28.525,33.9850003 5.95,5.845 3.675,14.7699997 1.925,21.8749997 -6.23,22.855 -15.225,44.835 -22.82,67.27 21.385,-19.25 42.875,-38.395 64.26,-57.61 9.73,-8.155 19.775,-16.695 32.06,-20.685 7.105,-2.6599997 13.44,2.135 19.88,4.41 3.325,-12.5649997 6.335,-25.2699997 10.85,-37.485 26.075,-0.56 52.08,1.645 77.98,4.34 3.465,0.245 6.37,1.75 8.715,4.48 -0.385,10.5350003 -2.345,21.7700003 -9.38,30.03 -16.905,-3.36 -34.265,-4.06 -51.485,-3.78 -10.64,40.18 -23.38,79.765 -34.79,119.734996 -11.445,1.015 -22.96,1.12 -34.405,0.49 5.425,-29.295 20.72,-56.279996 22.82,-86.134996 -7.35,1.925 -13.965,5.915 -19.39,11.165 -23.555,21.84 -46.48,44.519996 -72.205,63.839996 -10.15,6.615 -22.995,15.89 -35.455,9.905 -9.485,-5.04 -7.805,-16.8 -7.84,-25.725 -17.955,17.045 -41.965,30.835 -67.445,28.7 -17.5,-1.855 -30.94,-15.085 -38.115,-30.415 -23.555,9.8 -46.83,20.335 -70.735,29.295 -14.805,5.285 -31.29,9.52 -46.83,5.145 -12.88,-7.14 -10.675,-23.94 -6.475,-35.665 10.185,-31.324996 20.72,-62.544996 31.535,-93.659996 -12.46,0.525 -24.885,1.155 -37.345,0.945 -0.14,-12.00499968 2.45,-27.65 13.685,-34.23 11.62,-2.17 23.555,-1.365 35.35,-2.065 5.915,-15.575 8.925,-32.48 17.15,-47.075 m 156.135,69.2300003 c -13.72,4.305 -24.15,15.0849997 -33.215,25.7599997 -12.005,15.365 -21.945,33.11 -24.955,52.64 -1.54,9.905 4.445,21.84 15.155,23.275 16.345,2.239996 29.96,-9.695 40.74,-20.37 16.205,-17.64 30.205,-40.81 27.545,-65.66 -1.12,-11.7599997 -14.245,-19.8449997 -25.27,-15.6449997 z m -422.03,204.3299957 c 206.01,-18.41 413.105,-23.555 619.85,-18.165 6.755,0.35 13.475,1.47 20.195,2.59 -0.035,13.055 -2.345,25.97 -5.11,38.675 -2.975,0.595 -5.95,1.12 -8.89,1.61 -312.27,-12.145 -625.59,8.12 -934.464997,55.65 -166.040003,25.795 -331.275003,58.345 -493.465003,102.55 -4.76,1.05 -9.555,1.96 -14.35,2.765 -0.63,-12.915 -1.47,-25.9 0.07,-38.745 7,-7.49 18.165,-7.84 27.37,-11.095 257.88,-70.105 522.935003,-111.37 788.795,-135.835 z"
       id="path10"
       style="fill:#000000;stroke-width:3.5" />
  </g>
</svg>
